<?xml version="1.0" encoding="UTF-8" standalone="no"?>
<!-- Created with Inkscape (http://www.inkscape.org/) -->
<svg
   xmlns:dc="http://purl.org/dc/elements/1.1/"
   xmlns:cc="http://creativecommons.org/ns#"
   xmlns:rdf="http://www.w3.org/1999/02/22-rdf-syntax-ns#"
   xmlns:svg="http://www.w3.org/2000/svg"
   xmlns="http://www.w3.org/2000/svg"
   xmlns:xlink="http://www.w3.org/1999/xlink"
   xmlns:sodipodi="http://sodipodi.sourceforge.net/DTD/sodipodi-0.dtd"
   xmlns:inkscape="http://www.inkscape.org/namespaces/inkscape"
   width="64px"
   height="64px"
   id="svg4736"
   sodipodi:version="0.32"
   inkscape:version="0.46"
   sodipodi:docname="v9t9.svg"
   inkscape:output_extension="org.inkscape.output.svg.inkscape"
   inkscape:export-filename="L:\src\V9t9j\icons\v9t9.png"
   inkscape:export-xdpi="90.010002"
   inkscape:export-ydpi="90.010002">
  <defs
     id="defs4738">
    <inkscape:perspective
       sodipodi:type="inkscape:persp3d"
       inkscape:vp_x="0 : 32 : 1"
       inkscape:vp_y="0 : 1000 : 0"
       inkscape:vp_z="64 : 32 : 1"
       inkscape:persp3d-origin="32 : 21.333333 : 1"
       id="perspective4744" />
  </defs>
  <sodipodi:namedview
     id="base"
     pagecolor="#ffffff"
     bordercolor="#666666"
     borderopacity="1.0"
     inkscape:pageopacity="0.0"
     inkscape:pageshadow="2"
     inkscape:zoom="5.5"
     inkscape:cx="32"
     inkscape:cy="32"
     inkscape:current-layer="layer1"
     showgrid="true"
     inkscape:document-units="px"
     inkscape:grid-bbox="true"
     inkscape:window-width="774"
     inkscape:window-height="662"
     inkscape:window-x="430"
     inkscape:window-y="300" />
  <metadata
     id="metadata4741">
    <rdf:RDF>
      <cc:Work
         rdf:about="">
        <dc:format>image/svg+xml</dc:format>
        <dc:type
           rdf:resource="http://purl.org/dc/dcmitype/StillImage" />
      </cc:Work>
    </rdf:RDF>
  </metadata>
  <g
     id="layer1"
     inkscape:label="Layer 1"
     inkscape:groupmode="layer">
    <g
       id="g5334"
       transform="matrix(5.7435293,0,0,3.3443456,-151.88343,-33.278689)">
      <path
         sodipodi:type="inkscape:offset"
         inkscape:radius="1.052549"
         inkscape:original="M 32.28125 11.5 C 32.051638 11.500015 31.898732 11.580226 31.8125 11.78125 C 31.726263 11.982304 31.679209 12.252456 31.65625 12.5625 C 31.633287 12.872574 31.599357 13.212141 31.59375 13.5625 C 31.588139 13.912885 31.557489 14.221203 31.5 14.53125 C 31.442508 14.841321 31.336832 15.111473 31.1875 15.3125 C 31.038165 15.513551 30.810234 15.593761 30.5 15.59375 L 30.15625 15.59375 C 30.064406 15.593761 29.975132 15.63831 29.90625 15.71875 C 29.837367 15.799211 29.770457 15.955222 29.71875 16.15625 C 29.667044 16.3573 29.622496 16.618387 29.59375 16.96875 C 29.565005 17.319132 29.562499 17.792348 29.5625 18.34375 C 29.5625 18.400898 29.568284 18.41765 29.5625 18.40625 C 29.556716 18.394865 29.531251 18.439414 29.53125 18.53125 C 29.53125 18.554394 29.531251 18.579088 29.53125 18.625 C 29.53125 18.67093 29.550931 18.723768 29.5625 18.78125 C 29.826813 18.700632 30.068818 18.678447 30.28125 18.71875 C 30.493681 18.759071 30.658155 18.781258 30.75 18.78125 L 30.75 20.5625 C 30.749999 20.93023 30.710461 21.305885 30.6875 21.65625 C 30.664538 22.006628 30.653743 22.318049 30.625 22.59375 C 30.596254 22.86946 30.554211 23.0721 30.53125 23.25 C 30.508288 23.427906 30.5 23.539368 30.5 23.5625 L 30.5 24.25 C 30.499999 24.571454 30.580809 24.90291 30.71875 25.21875 C 30.856689 25.534595 31.037567 25.809756 31.25 26.0625 C 31.46243 26.315245 31.704611 26.532383 31.96875 26.6875 C 32.232885 26.842617 32.466003 26.90625 32.71875 26.90625 L 33.84375 26.90625 C 34.26896 26.90625 34.590999 26.864805 34.84375 26.75 C 35.096489 26.635196 35.319412 26.465113 35.46875 26.28125 C 35.618077 26.097388 35.723931 25.891643 35.78125 25.65625 C 35.838558 25.420858 35.852032 25.184462 35.875 24.9375 C 35.897955 24.690541 35.945783 24.460105 35.96875 24.21875 C 35.991704 23.977401 36.024687 23.74619 36.09375 23.5625 L 36.09375 23.15625 C 35.886921 23.190607 35.700258 23.223764 35.5625 23.28125 C 35.424729 23.338743 35.308082 23.417222 35.1875 23.46875 C 35.066907 23.520284 34.958724 23.553439 34.84375 23.59375 C 34.728765 23.634066 34.586828 23.656253 34.4375 23.65625 C 34.265377 23.656253 34.106688 23.58934 33.96875 23.46875 C 33.830806 23.348165 33.781247 23.167464 33.78125 22.9375 L 34.03125 21.15625 C 34.031245 20.869157 34.025462 20.579923 34.03125 20.28125 C 34.037029 19.982591 34.079073 19.698364 34.125 19.46875 C 34.170917 19.239149 34.240334 19.05559 34.34375 18.90625 C 34.447157 18.756925 34.606024 18.687508 34.8125 18.6875 L 36.09375 18.6875 C 36.0019 18.549393 35.951568 18.360402 35.96875 18.125 C 35.98592 17.889616 36.01657 17.636642 36.0625 17.34375 C 36.108415 17.050877 36.164533 16.747745 36.1875 16.4375 C 36.210454 16.127276 36.17402 15.829928 36.09375 15.53125 L 34.625 15.53125 C 34.636563 15.405064 34.630779 15.313285 34.625 15.25 C 34.619211 15.186738 34.624994 15.055595 34.625 14.90625 C 34.624995 14.423909 34.658151 13.967694 34.75 13.53125 C 34.841838 13.094832 34.874996 12.752759 34.875 12.5 L 34.875 11.5 L 32.28125 11.5 z "
         style="font-size:17.23011017px;font-style:normal;font-variant:normal;font-weight:normal;font-stretch:normal;text-indent:0;text-align:start;text-decoration:none;line-height:100%;letter-spacing:normal;word-spacing:normal;text-transform:none;direction:ltr;block-progression:tb;writing-mode:lr-tb;text-anchor:start;fill:#000000;fill-opacity:1;fill-rule:nonzero;stroke:none;stroke-width:1px;stroke-linecap:butt;stroke-linejoin:miter;marker:none;marker-start:none;marker-mid:none;marker-end:none;stroke-miterlimit:4;stroke-dashoffset:0;stroke-opacity:1;visibility:visible;display:inline;overflow:visible;enable-background:accumulate;font-family:Lucas;-inkscape-font-specification:Lucas"
         id="path5340"
         d="M 32.28125,10.4375 C 32.043896,10.437516 31.753839,10.490485 31.46875,10.65625 C 31.183661,10.822015 30.955727,11.113959 30.84375,11.375 C 30.677543,11.762496 30.621205,12.129238 30.59375,12.5 C 30.572247,12.790361 30.53777,13.123842 30.53125,13.53125 C 30.526463,13.830161 30.515661,14.090752 30.46875,14.34375 C 30.449671,14.446647 30.431258,14.471166 30.40625,14.53125 L 30.15625,14.53125 C 29.724128,14.531302 29.329993,14.755367 29.09375,15.03125 C 28.806726,15.366518 28.761049,15.620303 28.6875,15.90625 C 28.617368,16.178947 28.563758,16.478783 28.53125,16.875 C 28.497335,17.2884 28.500019,17.772633 28.5,18.3125 C 28.5,18.324231 28.5,18.331956 28.5,18.34375 C 28.499115,18.355506 28.500213,18.368653 28.5,18.375 C 28.498577,18.417314 28.499459,18.423801 28.5,18.4375 C 28.498426,18.468103 28.46875,18.499745 28.46875,18.53125 C 28.46875,18.554424 28.468751,18.579112 28.46875,18.625 C 28.46875,18.971608 28.540622,19.046568 28.53125,19 C 28.650578,19.52774 29.150548,19.879071 29.6875,19.8125 L 29.6875,20.5625 C 29.687499,20.854786 29.649907,21.213696 29.625,21.59375 C 29.600784,21.963258 29.585585,22.27857 29.5625,22.5 C 29.539215,22.723335 29.530852,22.885963 29.5,23.125 C 29.487005,23.225685 29.474992,23.308072 29.46875,23.375 C 29.462508,23.441928 29.4375,23.425228 29.4375,23.5625 L 29.4375,24.25 C 29.437498,24.747856 29.564303,25.199814 29.75,25.625 C 29.933271,26.044644 30.172311,26.434489 30.4375,26.75 C 30.712402,27.077073 31.045754,27.363695 31.4375,27.59375 C 31.826436,27.822158 32.289339,27.96875 32.71875,27.96875 L 33.84375,27.96875 C 34.337354,27.96875 34.808834,27.933331 35.28125,27.71875 C 35.678203,27.538438 36.009008,27.272681 36.28125,26.9375 C 36.519368,26.644312 36.71806,26.294088 36.8125,25.90625 C 36.899151,25.550334 36.916752,25.254339 36.9375,25.03125 C 36.95357,24.858366 37.001214,24.628144 37.03125,24.3125 C 37.051205,24.102684 37.088229,23.952186 37.09375,23.9375 C 37.13717,23.817329 37.158349,23.690257 37.15625,23.5625 L 37.15625,23.15625 C 37.155435,22.842984 37.015136,22.546358 36.773491,22.347 C 36.531845,22.147642 36.213962,22.066269 35.90625,22.125 C 35.692419,22.16052 35.473119,22.180272 35.15625,22.3125 C 34.984869,22.384019 34.96268,22.404751 34.90625,22.4375 L 35.0625,21.3125 C 35.076849,21.261281 35.087296,21.209048 35.09375,21.15625 C 35.093745,20.855035 35.08848,20.584433 35.09375,20.3125 C 35.097461,20.120727 35.123721,19.925052 35.15625,19.75 L 36.09375,19.75 C 36.469395,19.755935 36.81973,19.561217 37.013022,19.239063 C 37.206314,18.91691 37.213261,18.516159 37.03125,18.1875 C 37.045789,17.988188 37.051088,17.772055 37.09375,17.5 C 37.136552,17.226983 37.22144,16.885794 37.25,16.5 C 37.282654,16.058679 37.229995,15.640679 37.125,15.25 C 37.000733,14.784143 36.575853,14.462264 36.09375,14.46875 L 35.71875,14.46875 C 35.73407,14.222097 35.736521,13.96254 35.78125,13.75 C 35.885398,13.255083 35.937495,12.844796 35.9375,12.5 L 35.9375,11.5 C 35.940156,11.217402 35.829067,10.945605 35.629231,10.745769 C 35.429395,10.545933 35.157598,10.434844 34.875,10.4375 L 32.28125,10.4375 z M 29.125,17.4375 C 29.125,17.4375 29.124397,17.467409 29.125,17.46875 C 29.033104,17.514149 28.968612,17.547047 28.9375,17.5625 C 28.9375,17.5625 29.125,17.4375 29.125,17.4375 z" />
      <path
         style="font-size:17.23011017px;font-style:normal;font-variant:normal;font-weight:normal;font-stretch:normal;text-indent:0;text-align:start;text-decoration:none;line-height:100%;letter-spacing:normal;word-spacing:normal;text-transform:none;direction:ltr;block-progression:tb;writing-mode:lr-tb;text-anchor:start;fill:#49c751;fill-opacity:1;fill-rule:nonzero;stroke:none;stroke-width:1px;stroke-linecap:butt;stroke-linejoin:miter;marker:none;marker-start:none;marker-mid:none;marker-end:none;stroke-miterlimit:4;stroke-dashoffset:0;stroke-opacity:1;visibility:visible;display:inline;overflow:visible;enable-background:accumulate;font-family:Lucas;-inkscape-font-specification:Lucas"
         d="M 32.4375,11.28125 C 32.004313,11.278868 31.627583,11.577653 31.53125,12 C 31.493761,12.143366 31.486153,12.327484 31.46875,12.5625 C 31.446333,12.865196 31.380886,13.194701 31.375,13.5625 C 31.369254,13.92127 31.363727,14.223724 31.3125,14.5 C 31.255333,14.808319 31.152984,15.023625 31.03125,15.1875 C 30.972308,15.266854 30.721395,15.375008 30.5,15.375 L 30.4375,15.375 C 29.997677,15.279779 29.304499,15.361093 29.277594,15.914384 C 29.199821,16.392389 29.185234,16.184414 29.08847,17.136122 C 28.797297,18.154741 28.938846,17.860311 28.968344,18.687086 C 28.999014,18.699167 29.030309,18.709599 29.062094,18.718336 C 29.254001,18.813003 29.457783,18.80557 29.655844,18.812086 C 29.762435,18.703357 29.680657,18.81208 29.687094,18.812086 C 29.687094,18.812086 29.96701,18.750021 29.968344,18.749586 C 29.973331,18.747941 29.991841,18.752231 29.999594,18.749586 C 30.015101,18.744296 30.037774,18.727372 30.062094,18.718336 C 30.227138,18.704839 30.359722,18.568706 30.499594,18.437086 L 30.53125,20.5625 C 30.531249,20.922366 30.492099,21.299971 30.46875,21.65625 C 30.445337,22.013503 30.465676,22.292238 30.4375,22.5625 C 30.408772,22.838042 30.368552,23.02659 30.34375,23.21875 C 30.34157,23.235639 30.330759,23.241693 30.3125,23.4375 C 30.306745,23.499222 30.280676,23.527254 30.28125,23.5625 C 30.281526,23.579418 30.280261,23.601912 30.28125,23.625 C 30.281631,23.633899 30.279897,23.638929 30.28125,23.65625 L 30.28125,24.25 C 30.281248,24.60798 30.377309,24.960023 30.53125,25.3125 C 30.694157,25.685517 30.900557,25.957648 31.09375,26.1875 C 31.318567,26.454983 31.576035,26.699432 31.875,26.875 C 32.09394,27.003575 32.491296,27.125 32.71875,27.125 L 33.84375,27.125 C 34.299769,27.125 34.589489,27.081379 34.90625,26.9375 C 35.244221,26.783981 35.413168,26.667055 35.625,26.40625 C 35.818795,26.167637 35.925498,25.865123 35.96875,25.6875 C 36.015881,25.493909 36.034639,25.268324 36.0625,24.96875 C 36.081905,24.759985 36.126059,24.573345 36.15625,24.3125 C 36.188372,23.999026 36.05858,23.690784 35.811901,23.494706 C 35.565221,23.298627 35.235643,23.241729 34.9375,23.34375 C 34.799489,23.391154 34.718787,23.42815 34.78125,23.40625 C 34.711482,23.430712 34.605501,23.437503 34.4375,23.4375 C 34.297288,23.437502 34.16755,23.408268 34.09375,23.34375 C 34.037782,23.294825 33.999998,23.09972 34,22.9375 C 34.000176,22.927084 34.000176,22.916666 34,22.90625 L 34.21875,21.28125 C 34.232062,21.240361 34.242504,21.198593 34.25,21.15625 C 34.249999,21.128986 34.250136,21.097684 34.25,21.0625 C 34.249,20.802753 34.244904,20.575421 34.25,20.3125 C 34.255987,20.003055 34.276529,19.67984 34.3125,19.5 C 34.349188,19.316548 34.393498,19.185047 34.5,19.03125 C 34.521087,19.0008 34.746546,18.906252 34.8125,18.90625 L 35.25,18.90625 C 35.73484,18.897461 36.130459,18.515483 36.15625,18.03125 C 36.173624,17.824732 36.209422,17.633763 36.25,17.375 C 36.293791,17.095678 36.349381,16.783568 36.375,16.4375 C 36.385084,16.301225 36.406311,16.238257 36.40625,16.25 C 36.409839,16.000277 36.31222,15.759729 36.135621,15.583129 C 35.959021,15.40653 35.718473,15.308911 35.46875,15.3125 L 34.8125,15.3125 C 34.811087,15.284803 34.814091,15.236176 34.8125,15.21875 C 34.801491,15.098445 34.843742,15.122229 34.84375,14.90625 C 34.843745,14.413745 34.853361,13.962306 34.9375,13.5625 C 35.026762,13.138323 35.093745,12.824861 35.09375,12.5 L 35.09375,12.21875 C 35.097339,11.969027 34.99972,11.728479 34.823121,11.551879 C 34.646521,11.37528 34.405973,11.277661 34.15625,11.28125 L 32.4375,11.28125 z"
         id="path5342"
         sodipodi:nodetypes="ccssssccccccccsscccssssssccsssccsssscssssssccssssscccssssccsssccscc" />
    </g>
    <g
       id="g5330"
       transform="matrix(2.8416382,0,0,2.8416382,-13.486762,-15.885499)">
      <path
         style="font-size:17.23011017px;font-style:normal;font-variant:normal;font-weight:normal;font-stretch:normal;text-indent:0;text-align:start;text-decoration:none;line-height:100%;letter-spacing:normal;word-spacing:normal;text-transform:none;direction:ltr;block-progression:tb;writing-mode:lr-tb;text-anchor:start;fill:#000000;fill-opacity:1;fill-rule:nonzero;stroke:none;stroke-width:1px;stroke-linecap:butt;stroke-linejoin:miter;marker:none;marker-start:none;marker-mid:none;marker-end:none;stroke-miterlimit:4;stroke-dashoffset:0;stroke-opacity:1;visibility:visible;display:inline;overflow:visible;enable-background:accumulate;font-family:Lucas;-inkscape-font-specification:Lucas"
         d="M 13.375,14.71875 C 12.861395,14.718766 12.402761,14.974736 12.09375,15.34375 C 11.815225,15.676369 11.598199,16.06356 11.4375,16.46875 C 11.287743,16.846336 11.160777,17.198708 11.09375,17.59375 C 11.035668,17.936017 10.999988,18.146754 11,18.375 C 10.999993,18.677323 11.022014,18.940918 11.0625,19.15625 C 11.103827,19.376147 11.167088,19.551866 11.21875,19.6875 C 11.269424,19.820597 11.338184,19.925953 11.375,20 C 11.370741,19.934583 11.334259,20.091518 11.1875,20.375 C 11.042397,20.655273 10.822878,20.974661 10.59375,21.3125 C 10.371464,21.640246 10.14324,21.956022 9.9375,22.1875 C 9.9004217,22.229217 9.9374078,22.192892 9.90625,22.21875 C 9.8826369,22.151698 9.8620011,22.07768 9.84375,22 C 9.8016137,21.820698 9.7583432,21.655555 9.75,21.53125 C 9.7432485,21.430725 9.7263209,21.335866 9.71875,21.28125 L 9.71875,20.46875 C 9.7187478,20.34052 9.7098148,20.21746 9.65625,20.0625 C 9.632476,19.993723 9.5283016,19.948421 9.46875,19.875 C 9.4822577,19.769828 9.4955773,19.662347 9.5,19.5 C 9.5064318,19.263645 9.4999966,18.97462 9.5,18.53125 C 9.499997,18.085749 9.5036145,17.394063 9.46875,16.53125 C 9.4572169,16.313944 9.4511206,16.142245 9.4375,16 C 9.4189086,15.805994 9.3792135,15.673153 9.375,15.65625 C 9.3554982,15.578072 9.3705136,15.46437 9.15625,15.25 C 9.076445,15.170233 9.1101702,15.19892 9.125,15.21875 C 9.0225933,15.080002 8.8599427,14.998676 8.6875,15 L 5.625,15 C 5.3332575,15.003967 5.0977165,15.239508 5.09375,15.53125 L 5.09375,17.6875 C 5.09375,17.923801 5.195318,18.161866 5.375,18.34375 C 5.3769577,18.377924 5.3714631,18.460678 5.375,18.4375 C 5.3547417,18.570284 5.3553408,18.710616 5.34375,18.90625 C 5.3330644,19.086612 5.3062213,19.394654 5.3125,19.78125 C 5.3187098,20.163653 5.3522317,20.642311 5.375,21.21875 C 5.4103231,21.974606 5.4819124,22.69927 5.59375,23.40625 C 5.7065877,24.119566 5.8582716,24.758456 6.09375,25.34375 C 6.3310387,25.933555 6.6512669,26.459921 7.0625,26.84375 C 7.5035432,27.255408 8.0866286,27.4375 8.6875,27.4375 L 9.5625,27.4375 C 10.063333,27.4375 10.541505,27.267678 11.03125,26.96875 C 11.519386,26.670796 11.990482,26.265607 12.46875,25.78125 C 12.942286,25.301674 13.417796,24.754351 13.875,24.125 C 14.331662,23.496379 14.731011,22.845968 15.09375,22.15625 C 15.45475,21.469815 15.779284,20.757279 16.03125,20.03125 C 16.282139,19.308282 16.456791,18.618502 16.53125,17.9375 C 16.531552,17.927086 16.531552,17.916664 16.53125,17.90625 C 16.557187,17.579309 16.542977,17.300898 16.53125,17.09375 C 16.522427,16.938205 16.53124,16.687363 16.53125,16.375 C 16.531236,16.18597 16.509734,16.01757 16.5,15.90625 C 16.488112,15.770575 16.480411,15.628637 16.40625,15.4375 C 16.313533,15.198709 16.162017,15.068115 16.09375,15 C 16.006215,14.912715 15.759139,14.718778 15.46875,14.71875 L 13.375,14.71875 z"
         id="path5338" />
      <path
         d="M 13.375,15.96875 C 13.231444,15.968754 13.198876,15.993393 13.0625,16.15625 C 12.884927,16.368311 12.745373,16.63399 12.625,16.9375 C 12.489818,17.278336 12.388347,17.549659 12.34375,17.8125 C 12.287046,18.146649 12.250002,18.412994 12.25,18.375 C 12.249995,18.588003 12.286002,18.796565 12.3125,18.9375 C 12.337836,19.072309 12.368065,19.149747 12.40625,19.25 C 12.440162,19.339071 12.46917,19.407264 12.5,19.46875 C 12.555838,19.580175 12.624955,19.627559 12.625,19.96875 C 12.624979,20.41513 12.492248,20.621546 12.3125,20.96875 C 12.117069,21.346233 11.855656,21.691158 11.625,22.03125 C 11.385079,22.384998 11.137241,22.704954 10.875,23 C 10.595274,23.314718 10.38621,23.625018 9.8125,23.625 C 9.5968927,23.625008 9.3562627,23.544665 9.1875,23.40625 C 9.0187373,23.267835 8.9115159,23.109323 8.84375,22.96875 C 8.7426105,22.75898 8.6512419,22.525945 8.59375,22.28125 C 8.5427079,22.064052 8.5159144,21.862109 8.5,21.625 C 8.4955186,21.558275 8.4734901,21.502945 8.46875,21.46875 C 8.4640099,21.434555 8.4687161,21.502133 8.46875,21.28125 L 8.46875,20.625 C 8.4535043,20.612449 8.454554,20.609745 8.4375,20.59375 C 8.3207454,20.484249 8.2187244,20.241948 8.21875,20.0625 C 8.2187557,20.136844 8.1605716,20.014001 8.21875,19.75 C 8.1969712,19.848855 8.2448463,19.657932 8.25,19.46875 C 8.2549012,19.288642 8.2499966,18.985519 8.25,18.53125 C 8.249997,18.079895 8.2524059,17.426652 8.21875,16.59375 C 8.2102125,16.432886 8.1939105,16.340465 8.1875,16.25 L 6.34375,16.25 L 6.34375,17.5 C 6.4200656,17.560668 6.5009732,17.752856 6.5625,17.96875 L 6.625,17.9375 C 6.6384751,17.99182 6.6147091,18.07364 6.625,18.125 C 6.6337316,18.168578 6.6562488,18.189188 6.65625,18.28125 C 6.6562477,18.457137 6.6464494,18.46074 6.625,18.5 C 6.6764483,18.194368 6.6597372,18.42861 6.625,18.65625 C 6.6255788,18.652456 6.6052867,18.774028 6.59375,18.96875 C 6.5809895,19.184133 6.5573836,19.466217 6.5625,19.78125 C 6.5677083,20.101979 6.6013665,20.557906 6.625,21.15625 C 6.6580435,21.863328 6.7385334,22.522375 6.84375,23.1875 C 6.947614,23.844088 7.0995262,24.423316 7.28125,24.875 C 7.4605247,25.320605 7.6829043,25.66862 7.9375,25.90625 C 8.1518318,26.106301 8.3379957,26.1875 8.6875,26.1875 L 9.5625,26.1875 C 9.7504672,26.1875 9.9969545,26.10575 10.375,25.875 C 10.755192,25.642934 11.141764,25.332343 11.5625,24.90625 C 11.989595,24.473707 12.421758,23.955881 12.84375,23.375 C 13.266437,22.793149 13.635058,22.196987 13.96875,21.5625 C 14.30475,20.923602 14.617122,20.246769 14.84375,19.59375 C 15.071788,18.936631 15.219462,18.346362 15.28125,17.78125 C 15.299756,17.547978 15.292166,17.349062 15.28125,17.15625 C 15.266363,16.893797 15.281241,16.655196 15.28125,16.375 C 15.281245,16.30649 15.264019,16.191568 15.25,16.03125 C 15.245707,15.982258 15.253239,15.992215 15.25,15.96875 L 13.375,15.96875 z"
         id="path4801"
         style="font-size:17.23011017px;font-style:normal;font-variant:normal;font-weight:normal;font-stretch:normal;text-indent:0;text-align:start;text-decoration:none;line-height:100%;letter-spacing:normal;word-spacing:normal;text-transform:none;direction:ltr;block-progression:tb;writing-mode:lr-tb;text-anchor:start;fill:#4d51d0;fill-opacity:1;fill-rule:nonzero;stroke:none;stroke-width:1px;stroke-linecap:butt;stroke-linejoin:miter;marker:none;marker-start:none;marker-mid:none;marker-end:none;stroke-miterlimit:4;stroke-dashoffset:0;stroke-opacity:1;visibility:visible;display:inline;overflow:visible;enable-background:accumulate;font-family:Lucas;-inkscape-font-specification:Lucas"
         inkscape:original="M 13.375 15.25 C 13.018837 15.250011 12.735561 15.406198 12.5 15.6875 C 12.264426 15.968826 12.081042 16.294321 11.9375 16.65625 C 11.793944 17.0182 11.682484 17.348705 11.625 17.6875 C 11.567504 18.026313 11.531244 18.260029 11.53125 18.375 C 11.531244 18.639321 11.559215 18.878821 11.59375 19.0625 C 11.628273 19.246195 11.672822 19.379419 11.71875 19.5 C 11.764665 19.620596 11.809215 19.712375 11.84375 19.78125 C 11.878272 19.850139 11.906244 19.922835 11.90625 19.96875 C 11.906244 20.095304 11.822754 20.303379 11.65625 20.625 C 11.489734 20.946632 11.261028 21.286202 11.03125 21.625 C 10.801461 21.963809 10.573529 22.272726 10.34375 22.53125 C 10.113962 22.789783 9.9386928 22.906254 9.8125 22.90625 C 9.6743805 22.906255 9.5802714 22.822764 9.5 22.65625 C 9.4197206 22.489745 9.358418 22.320435 9.3125 22.125 C 9.2665746 21.929575 9.2303145 21.734799 9.21875 21.5625 C 9.2071786 21.390211 9.1874965 21.304042 9.1875 21.28125 L 9.1875 20.46875 C 9.1874967 20.27315 9.1543399 20.15936 9.0625 20.125 C 8.9706533 20.090653 8.9374967 20.085643 8.9375 20.0625 C 8.9374965 20.016586 8.9261039 19.957963 8.9375 19.90625 C 8.9488896 19.854552 8.9629627 19.712439 8.96875 19.5 C 8.9745306 19.287576 8.9687466 18.979257 8.96875 18.53125 C 8.968747 18.083258 8.9718503 17.412587 8.9375 16.5625 C 8.9259285 16.34447 8.9178148 16.183275 8.90625 16.0625 C 8.8946785 15.941748 8.8609236 15.850144 8.84375 15.78125 C 8.8265699 15.712379 8.8099917 15.653756 8.78125 15.625 C 8.7525024 15.596266 8.7218505 15.577183 8.6875 15.53125 L 5.625 15.53125 L 5.625 17.6875 C 5.625 17.882764 5.6950153 17.99673 5.78125 18.03125 C 5.8674844 18.065786 5.9062497 18.102223 5.90625 18.125 C 5.9290352 18.216851 5.9374997 18.258122 5.9375 18.28125 C 5.9374997 18.304395 5.9120337 18.340654 5.90625 18.375 C 5.9004657 18.409362 5.9176426 18.456592 5.90625 18.53125 C 5.8948571 18.605925 5.8865678 18.742254 5.875 18.9375 C 5.8634316 19.132762 5.8379658 19.425101 5.84375 19.78125 C 5.8495337 20.137413 5.8831136 20.601741 5.90625 21.1875 C 5.9406032 21.922603 6.0159794 22.623328 6.125 23.3125 C 6.2340197 24.00168 6.3811422 24.627802 6.59375 25.15625 C 6.8063559 25.684703 7.0929103 26.115873 7.4375 26.4375 C 7.7820859 26.759127 8.193576 26.90625 8.6875 26.90625 L 9.5625 26.90625 C 9.9302204 26.90625 10.307779 26.769921 10.75 26.5 C 11.19221 26.230079 11.63996 25.865818 12.09375 25.40625 C 12.547527 24.946685 12.995277 24.421229 13.4375 23.8125 C 13.879707 23.203778 14.274619 22.572469 14.625 21.90625 C 14.975363 21.24004 15.290064 20.538716 15.53125 19.84375 C 15.772417 19.148798 15.930932 18.506695 16 17.875 C 16.022775 17.587912 16.011382 17.326049 16 17.125 C 15.988597 16.92397 15.99999 16.673677 16 16.375 C 15.99999 16.237247 15.980307 16.100917 15.96875 15.96875 C 15.957171 15.836604 15.946378 15.728423 15.90625 15.625 C 15.866102 15.5216 15.787798 15.443894 15.71875 15.375 C 15.649682 15.306129 15.58337 15.250011 15.46875 15.25 L 13.375 15.25 z "
         inkscape:radius="-0.72727275"
         sodipodi:type="inkscape:offset" />
    </g>
    <g
       id="g5320"
       transform="matrix(0.8749512,0,0,0.8749512,11.655295,15.939393)">
      <path
         sodipodi:type="inkscape:offset"
         inkscape:radius="1.4902962"
         inkscape:original="M 25.6875 11.375 C 23.718829 11.375033 21.916472 11.581455 20.40625 12.09375 C 18.896003 12.606109 17.650545 13.333676 16.53125 14.15625 C 15.411943 14.978882 14.41136 15.899292 13.65625 16.9375 C 12.901128 17.975759 12.364665 19.041962 11.90625 20.09375 C 11.447827 21.145586 11.07705 22.154275 10.875 23.125 C 10.672948 24.095771 10.59375 24.892557 10.59375 25.59375 C 10.593747 27.805211 10.888932 29.690857 11.46875 31.1875 C 12.048561 32.684166 12.779732 33.88618 13.65625 34.84375 C 14.532755 35.801338 15.466261 36.563759 16.53125 37.0625 C 17.596227 37.561253 18.653831 37.913466 19.625 38.15625 C 20.596147 38.399047 21.419202 38.526268 22.1875 38.59375 C 22.95577 38.661241 23.511286 38.731848 23.78125 38.8125 L 13.96875 51.59375 L 13.96875 51.8125 L 23.5625 51.8125 C 23.885929 51.81249 24.427379 51.309915 25.25 50.40625 C 26.072589 49.502576 27.024247 48.379344 28.0625 47.03125 C 29.100717 45.683146 30.188672 44.238474 31.28125 42.6875 C 32.373784 41.13653 33.329046 39.695949 34.21875 38.375 C 35.027749 37.215376 35.758921 36.021956 36.40625 34.78125 C 37.053523 33.540563 37.635304 32.320879 38.09375 31.09375 C 38.552139 29.866647 38.882182 28.646067 39.125 27.5 C 39.367759 26.353967 39.499972 25.314928 39.5 24.34375 C 39.499968 22.510088 39.2623 20.955866 38.75 19.59375 C 38.237642 18.231684 37.590249 17.033275 36.78125 16.0625 C 35.972198 15.09178 35.025044 14.325757 34 13.71875 C 32.974912 13.111808 31.930884 12.600227 30.90625 12.25 C 29.881574 11.89984 28.899152 11.652676 27.96875 11.53125 C 27.038314 11.409887 26.308033 11.375033 25.6875 11.375 z M 25.1875 19.15625 C 25.942189 19.156274 26.700518 19.270331 27.375 19.59375 C 28.049444 19.91722 28.577313 20.29119 29.0625 20.75 C 29.547649 21.208856 29.966863 21.706445 30.25 22.21875 C 30.533096 22.731098 30.687477 23.211912 30.6875 23.5625 L 30.6875 26.03125 C 30.687476 26.409032 30.519517 26.871281 30.25 27.4375 C 29.980442 28.00375 29.566215 28.866721 29 30 C 28.352265 29.433778 27.95702 29.103739 27.6875 28.96875 C 27.417946 28.833791 27.174388 28.750017 27.09375 28.75 C 26.878103 28.750018 26.693851 28.869059 26.4375 29.125 C 26.181112 29.380972 25.81934 29.676156 25.46875 30 C 25.118129 30.323869 24.704311 30.619054 24.21875 30.875 C 23.733155 31.130968 23.205285 31.250013 22.53125 31.25 C 22.207789 31.250013 21.79308 31.130968 21.375 30.875 C 20.956896 30.619054 20.551674 30.315279 20.1875 29.9375 C 19.823303 29.559751 19.554866 29.159511 19.3125 28.6875 C 19.070111 28.215517 18.937493 27.712525 18.9375 27.28125 L 18.9375 25.59375 C 18.937491 24.596274 19.215491 23.702131 19.6875 22.90625 C 20.159488 22.110416 20.700938 21.472508 21.375 20.90625 C 22.049038 20.340039 22.785197 19.890476 23.5 19.59375 C 24.214774 19.297077 24.729066 19.156276 25.1875 19.15625 z "
         style="font-size:17.23011017px;font-style:normal;font-variant:normal;font-weight:normal;font-stretch:normal;text-indent:0;text-align:start;text-decoration:none;line-height:100%;letter-spacing:normal;word-spacing:normal;text-transform:none;direction:ltr;block-progression:tb;writing-mode:lr-tb;text-anchor:start;fill:#000000;fill-opacity:1;fill-rule:nonzero;stroke:none;stroke-width:1px;stroke-linecap:butt;stroke-linejoin:miter;marker:none;marker-start:none;marker-mid:none;marker-end:none;stroke-miterlimit:4;stroke-dashoffset:0;stroke-opacity:1;visibility:visible;display:inline;overflow:visible;enable-background:accumulate;font-family:Lucas;-inkscape-font-specification:Lucas"
         id="path5349"
         d="M 25.6875,9.875 C 23.614669,9.8750347 21.673984,10.098453 19.9375,10.6875 C 18.256833,11.257675 16.86273,12.082103 15.65625,12.96875 C 14.451014,13.854535 13.31452,14.856677 12.4375,16.0625 C 11.594403,17.221721 11.012426,18.395988 10.53125,19.5 C 10.050994,20.60193 9.6404494,21.687317 9.40625,22.8125 C 9.1868795,23.866479 9.09375,24.78034 9.09375,25.59375 C 9.0937468,27.937828 9.4231571,29.987796 10.09375,31.71875 C 10.728922,33.35832 11.54529,34.732478 12.5625,35.84375 C 13.528826,36.899468 14.615895,37.801969 15.90625,38.40625 C 17.07037,38.951434 18.196797,39.330458 19.25,39.59375 C 19.922515,39.761886 20.484542,39.823488 21.0625,39.90625 L 12.78125,50.6875 C 12.580129,50.946928 12.470278,51.265496 12.46875,51.59375 L 12.46875,51.8125 C 12.466186,52.211105 12.623398,52.594127 12.90526,52.87599 C 13.187123,53.157852 13.570145,53.315064 13.96875,53.3125 L 23.5625,53.3125 C 24.496111,53.312471 24.81588,52.911998 25.1875,52.59375 C 25.55912,52.275502 25.915452,51.876744 26.34375,51.40625 C 27.194989,50.471102 28.187307,49.317328 29.25,47.9375 C 30.29517,46.580368 31.390099,45.106816 32.5,43.53125 C 33.607207,41.95945 34.583387,40.533254 35.46875,39.21875 C 36.311185,38.011198 37.039826,36.770012 37.71875,35.46875 C 38.381901,34.197628 39.010196,32.936065 39.5,31.625 C 39.989694,30.314093 40.338647,29.016549 40.59375,27.8125 C 40.851619,26.595134 40.999968,25.450153 41,24.34375 C 40.999966,22.381327 40.746582,20.63209 40.15625,19.0625 C 39.599662,17.58285 38.882338,16.227527 37.9375,15.09375 C 37.009077,13.979806 35.901711,13.119517 34.75,12.4375 C 33.659101,11.791592 32.526747,11.237425 31.375,10.84375 C 30.277568,10.468727 29.210494,10.200089 28.15625,10.0625 C 27.162928,9.9329344 26.363775,9.875036 25.6875,9.875 z M 25.1875,20.65625 C 25.792067,20.656269 26.313781,20.743314 26.71875,20.9375 C 27.262749,21.198407 27.644404,21.477935 28.03125,21.84375 C 28.437007,22.227517 28.757991,22.612699 28.9375,22.9375 C 29.140635,23.305135 29.187506,23.649323 29.1875,23.5625 L 29.1875,26.03125 C 29.187504,25.967393 29.143753,26.313538 28.90625,26.8125 C 28.810915,27.012767 28.60055,27.445559 28.46875,27.71875 C 28.424535,27.694545 28.390813,27.648571 28.34375,27.625 C 28.15868,27.53234 27.98299,27.467849 27.8125,27.40625 C 27.64201,27.344651 27.649837,27.250117 27.09375,27.25 C 26.329727,27.250064 25.720517,27.717536 25.375,28.0625 C 25.209257,28.227974 24.863135,28.541952 24.46875,28.90625 C 24.215913,29.139796 23.907661,29.364088 23.53125,29.5625 C 23.271155,29.699602 23.029797,29.75001 22.53125,29.75 C 22.573494,29.749998 22.375528,29.728002 22.15625,29.59375 C 21.820283,29.388085 21.507848,29.173731 21.25,28.90625 C 20.996916,28.643748 20.81949,28.378772 20.625,28 C 20.478259,27.714264 20.437498,27.406993 20.4375,27.28125 L 20.4375,25.59375 C 20.437493,24.873183 20.615589,24.251734 20.96875,23.65625 C 21.363888,22.989996 21.790803,22.527013 22.34375,22.0625 C 22.906072,21.590134 23.50535,21.200032 24.0625,20.96875 C 24.697701,20.705104 25.034151,20.656259 25.1875,20.65625 z" />
      <path
         d="M 23.0625,13.5 C 22.251489,13.500014 21.527027,13.581271 20.9375,13.78125 C 20.334449,13.985838 19.828199,14.260692 19.375,14.59375 C 18.921331,14.927173 18.512035,15.31551 18.21875,15.71875 C 17.917709,16.132669 17.720003,16.566925 17.53125,17 C 17.340902,17.436748 17.171857,17.812246 17.09375,18.1875 C 17.011617,18.582112 17,18.920739 17,19.1875 C 16.999999,20.096172 17.11851,20.856104 17.34375,21.4375 C 17.576623,22.038614 17.879834,22.504744 18.21875,22.875 C 18.569721,23.258438 18.912455,23.531406 19.3125,23.71875 C 19.743827,23.920752 20.171315,24.089707 20.5625,24.1875 C 20.958386,24.286475 21.284504,24.316588 21.59375,24.34375 C 21.927708,24.373088 22.148983,24.410563 22.34375,24.46875 C 22.455419,24.504359 22.543365,24.591162 22.58043,24.702357 C 22.617494,24.813551 22.59922,24.935761 22.53125,25.03125 L 18.71875,29.96875 L 22.15625,29.96875 C 22.039681,29.968753 22.092374,29.98667 22.1875,29.90625 C 22.282626,29.82583 22.423298,29.687245 22.59375,29.5 C 22.934624,29.125524 23.343346,28.662337 23.78125,28.09375 C 24.223207,27.519878 24.66512,26.902824 25.125,26.25 C 25.585867,25.595748 25.994004,24.971917 26.375,24.40625 C 26.71237,23.922661 27.045486,23.449273 27.3125,22.9375 C 27.584995,22.415184 27.812891,21.907088 28,21.40625 C 28.187253,20.904976 28.336916,20.41224 28.4375,19.9375 C 28.536845,19.468507 28.562489,19.03866 28.5625,18.65625 C 28.562487,17.90477 28.47894,17.275623 28.28125,16.75 C 28.074789,16.201137 27.813047,15.750647 27.5,15.375 C 27.185117,14.997196 26.811648,14.677567 26.40625,14.4375 C 25.984943,14.18805 25.560801,13.982028 25.15625,13.84375 C 24.734514,13.699631 24.330619,13.609727 23.96875,13.5625 C 23.590145,13.513116 23.316828,13.500013 23.0625,13.5 z M 22.84375,16.0625 C 23.203041,16.062511 23.582844,16.111189 23.9375,16.28125 C 24.261583,16.436684 24.522545,16.628661 24.75,16.84375 C 24.978411,17.059782 25.168657,17.302234 25.3125,17.5625 C 25.450029,17.811402 25.562483,18.05357 25.5625,18.3125 L 25.5625,19.375 C 25.562483,19.646419 25.465135,19.869986 25.34375,20.125 C 25.229223,20.365583 25.055395,20.732595 24.8125,21.21875 C 24.766302,21.33107 24.66753,21.413263 24.548685,21.438283 C 24.429839,21.463303 24.306313,21.42791 24.21875,21.34375 C 23.94716,21.106337 23.784393,20.954726 23.75,20.9375 C 23.71439,20.919671 23.682783,20.917034 23.65625,20.90625 C 23.544354,20.906227 23.597046,20.895891 23.625,20.90625 C 23.625673,20.908123 23.66655,20.896017 23.625,20.9375 C 23.50036,21.061938 23.362615,21.210861 23.21875,21.34375 C 23.047529,21.501908 22.829837,21.625555 22.59375,21.75 C 22.328551,21.889794 22.046095,21.968757 21.71875,21.96875 C 21.497093,21.96876 21.265161,21.893212 21.03125,21.75 C 20.824003,21.623132 20.643217,21.462234 20.46875,21.28125 C 20.288145,21.093924 20.14755,20.882746 20.03125,20.65625 C 19.904106,20.408674 19.812496,20.160552 19.8125,19.90625 L 19.8125,19.1875 C 19.812495,18.698458 19.953431,18.238426 20.1875,17.84375 C 20.408766,17.470666 20.654923,17.169886 20.96875,16.90625 C 21.282396,16.642778 21.62358,16.424535 21.96875,16.28125 C 22.292055,16.14706 22.571916,16.062515 22.84375,16.0625 z"
         id="path5314"
         style="font-size:17.23011017px;font-style:normal;font-variant:normal;font-weight:normal;font-stretch:normal;text-indent:0;text-align:start;text-decoration:none;line-height:100%;letter-spacing:normal;word-spacing:normal;text-transform:none;direction:ltr;block-progression:tb;writing-mode:lr-tb;text-anchor:start;fill:#cfd050;fill-opacity:1;fill-rule:nonzero;stroke:none;stroke-width:1px;stroke-linecap:butt;stroke-linejoin:miter;marker:none;marker-start:none;marker-mid:none;marker-end:none;stroke-miterlimit:4;stroke-dashoffset:0;stroke-opacity:1;visibility:visible;display:inline;overflow:visible;enable-background:accumulate;font-family:Lucas;-inkscape-font-specification:Lucas"
         inkscape:original="M 23.0625 13.125 C 22.223984 13.125014 21.455749 13.219298 20.8125 13.4375 C 20.169241 13.655729 19.632991 13.962141 19.15625 14.3125 C 18.679503 14.662884 18.259124 15.057796 17.9375 15.5 C 17.615871 15.942226 17.382753 16.395762 17.1875 16.84375 C 16.992244 17.291759 16.836059 17.711539 16.75 18.125 C 16.66394 18.53848 16.625 18.888841 16.625 19.1875 C 16.624999 20.129428 16.753038 20.925035 17 21.5625 C 17.246959 22.199975 17.564165 22.717142 17.9375 23.125 C 18.31083 23.532865 18.702639 23.850071 19.15625 24.0625 C 19.609855 24.274935 20.0551 24.427841 20.46875 24.53125 C 20.882391 24.634664 21.235259 24.690007 21.5625 24.71875 C 21.88973 24.747497 22.135014 24.778148 22.25 24.8125 L 18.0625 30.25 L 18.0625 30.34375 L 22.15625 30.34375 C 22.294008 30.343747 22.524621 30.134898 22.875 29.75 C 23.225365 29.365097 23.620277 28.886694 24.0625 28.3125 C 24.504708 27.738302 24.972138 27.129356 25.4375 26.46875 C 25.902842 25.808145 26.308548 25.187632 26.6875 24.625 C 27.032077 24.131081 27.349283 23.622204 27.625 23.09375 C 27.900693 22.565304 28.148484 22.053921 28.34375 21.53125 C 28.538992 21.008589 28.677826 20.488145 28.78125 20 C 28.884649 19.51187 28.937488 19.069904 28.9375 18.65625 C 28.937487 17.875239 28.843204 17.205166 28.625 16.625 C 28.406772 16.044855 28.125827 15.538482 27.78125 15.125 C 27.43665 14.711541 27.030347 14.383542 26.59375 14.125 C 26.157133 13.866485 25.717672 13.649172 25.28125 13.5 C 24.84481 13.350856 24.427536 13.239219 24.03125 13.1875 C 23.634949 13.135808 23.326804 13.125014 23.0625 13.125 z M 22.84375 16.4375 C 23.165195 16.43751 23.493968 16.487246 23.78125 16.625 C 24.068516 16.762776 24.293344 16.929579 24.5 17.125 C 24.706639 17.32044 24.879403 17.531794 25 17.75 C 25.120579 17.968225 25.18749 18.163174 25.1875 18.3125 L 25.1875 19.375 C 25.18749 19.535909 25.114795 19.72758 25 19.96875 C 24.885187 20.209933 24.709918 20.579802 24.46875 21.0625 C 24.192861 20.821329 24.021046 20.682496 23.90625 20.625 C 23.791438 20.567517 23.690596 20.531257 23.65625 20.53125 C 23.564399 20.531257 23.484188 20.578487 23.375 20.6875 C 23.265797 20.796526 23.118077 20.924565 22.96875 21.0625 C 22.81941 21.200446 22.644315 21.328485 22.4375 21.4375 C 22.230671 21.546525 22.005842 21.593756 21.71875 21.59375 C 21.580979 21.593756 21.396823 21.546525 21.21875 21.4375 C 21.040667 21.328485 20.873863 21.192157 20.71875 21.03125 C 20.563628 20.870355 20.446981 20.701044 20.34375 20.5 C 20.240509 20.298968 20.187497 20.089943 20.1875 19.90625 L 20.1875 19.1875 C 20.187496 18.762645 20.298957 18.370239 20.5 18.03125 C 20.701034 17.69228 20.931647 17.428686 21.21875 17.1875 C 21.505843 16.946333 21.820544 16.751384 22.125 16.625 C 22.429444 16.498638 22.648489 16.437511 22.84375 16.4375 z "
         inkscape:radius="-0.36697721"
         sodipodi:type="inkscape:offset"
         transform="matrix(2.3478032,0,0,2.3478032,-28.445709,-19.442858)" />
    </g>
    <use
       x="0"
       y="0"
       xlink:href="#g5320"
       id="use5347"
       transform="translate(17.499025,-0.1590821)"
       width="64"
       height="64" />
  </g>
</svg>
