<?xml version="1.0" encoding="UTF-8" standalone="no"?>
<!-- Created with Inkscape (http://www.inkscape.org/) -->

<svg
   xmlns:dc="http://purl.org/dc/elements/1.1/"
   xmlns:cc="http://creativecommons.org/ns#"
   xmlns:rdf="http://www.w3.org/1999/02/22-rdf-syntax-ns#"
   xmlns:svg="http://www.w3.org/2000/svg"
   xmlns="http://www.w3.org/2000/svg"
   xmlns:xlink="http://www.w3.org/1999/xlink"
   xmlns:sodipodi="http://sodipodi.sourceforge.net/DTD/sodipodi-0.dtd"
   xmlns:inkscape="http://www.inkscape.org/namespaces/inkscape"
   inkscape:export-ydpi="45"
   inkscape:export-xdpi="45"
   inkscape:export-filename="/home/ejs/devel/emul/java/v9t9-java/icons/disk_directory.png"
   sodipodi:docname="disk_image.svg"
   inkscape:version="0.47 r22583"
   version="1.1"
   id="svg21693"
   height="64px"
   width="64px">
  <defs
     id="defs21695">
    <inkscape:path-effect
       effect="envelope"
       id="path-effect22711"
       is_visible="true"
       yy="true"
       xx="false"
       bendpath1="m 27.026405,188.59407 19.454008,10.338"
       bendpath2="m 42.16451,202.85144 c -2.895377,19.817 0.918629,15.22164 0,20.1912"
       bendpath3="m 23.535813,231.56434 18.628697,-8.5217"
       bendpath4="m 21.036898,198.12837 c -1.060873,29.17106 -1.600943,19.1504 -0.231197,19.84989"
       bendpath1-nodetypes="cc"
       bendpath3-nodetypes="cc"
       bendpath2-nodetypes="cz"
       bendpath4-nodetypes="cc" />
    <inkscape:path-effect
       effect="bend_path"
       id="path-effect22708"
       is_visible="true"
       bendpath="m 19.902867,208.46801 c 2.150934,10.76094 4.213304,6.6236 13.626998,5.35046"
       prop_scale="1"
       scale_y_rel="false"
       vertical="false"
       bendpath-nodetypes="cc" />
    <inkscape:perspective
       sodipodi:type="inkscape:persp3d"
       inkscape:vp_x="0 : 32 : 1"
       inkscape:vp_y="0 : 1000 : 0"
       inkscape:vp_z="64 : 32 : 1"
       inkscape:persp3d-origin="32 : 21.333333 : 1"
       id="perspective21701" />
    <inkscape:perspective
       id="perspective21680"
       inkscape:persp3d-origin="0.5 : 0.33333333 : 1"
       inkscape:vp_z="1 : 0.5 : 1"
       inkscape:vp_y="0 : 1000 : 0"
       inkscape:vp_x="0 : 0.5 : 1"
       sodipodi:type="inkscape:persp3d" />
    <linearGradient
       gradientUnits="userSpaceOnUse"
       y2="373.74353"
       x2="53.56802"
       y1="331.84744"
       x1="11.315864"
       id="linearGradient3985"
       xlink:href="#linearGradient3979"
       inkscape:collect="always" />
    <linearGradient
       id="linearGradient3979">
      <stop
         id="stop3981"
         offset="0"
         style="stop-color:#000000;stop-opacity:1;" />
      <stop
         id="stop3983"
         offset="1"
         style="stop-color:#313131;stop-opacity:1;" />
    </linearGradient>
    <inkscape:perspective
       id="perspective22611"
       inkscape:persp3d-origin="0.5 : 0.33333333 : 1"
       inkscape:vp_z="1 : 0.5 : 1"
       inkscape:vp_y="0 : 1000 : 0"
       inkscape:vp_x="0 : 0.5 : 1"
       sodipodi:type="inkscape:persp3d" />
    <inkscape:perspective
       id="perspective22733"
       inkscape:persp3d-origin="0.5 : 0.33333333 : 1"
       inkscape:vp_z="1 : 0.5 : 1"
       inkscape:vp_y="0 : 1000 : 0"
       inkscape:vp_x="0 : 0.5 : 1"
       sodipodi:type="inkscape:persp3d" />
    <filter
       inkscape:collect="always"
       id="filter22882">
      <feGaussianBlur
         inkscape:collect="always"
         stdDeviation="0.84092172"
         id="feGaussianBlur22884" />
    </filter>
  </defs>
  <sodipodi:namedview
     id="base"
     pagecolor="#ffffff"
     bordercolor="#666666"
     borderopacity="1.0"
     inkscape:pageopacity="0.0"
     inkscape:pageshadow="2"
     inkscape:zoom="5.5"
     inkscape:cx="32"
     inkscape:cy="25.818182"
     inkscape:current-layer="layer1"
     showgrid="true"
     inkscape:document-units="px"
     inkscape:grid-bbox="true"
     inkscape:window-width="977"
     inkscape:window-height="594"
     inkscape:window-x="496"
     inkscape:window-y="275"
     inkscape:window-maximized="0" />
  <metadata
     id="metadata21698">
    <rdf:RDF>
      <cc:Work
         rdf:about="">
        <dc:format>image/svg+xml</dc:format>
        <dc:type
           rdf:resource="http://purl.org/dc/dcmitype/StillImage" />
        <dc:title></dc:title>
      </cc:Work>
    </rdf:RDF>
  </metadata>
  <g
     id="layer1"
     inkscape:label="Layer 1"
     inkscape:groupmode="layer">
    <g
       id="g3995"
       style="display:inline"
       transform="matrix(1.1236902,0,0,1.1026376,-5.4362942,-146.00596)">
      <path
         style="fill:url(#linearGradient3985);fill-opacity:1;fill-rule:nonzero;stroke:black;stroke-width:1.34757078;stroke-linecap:round;stroke-linejoin:round;stroke-miterlimit:4;stroke-opacity:1;stroke-dasharray:none;stroke-dashoffset:0"
         d="m 8,328 0,9.15625 c 0.8918052,0.26165 1.53125,1.03066 1.53125,1.9375 3e-7,0.90684 -0.6394448,1.6446 -1.53125,1.90625 l 0,35 20.5,0 c 0.131942,-0.64423 0.691935,-1.125 1.375,-1.125 0.683065,10e-6 1.243058,0.48077 1.375,1.125 l 1.3125,0 c 0.131942,-0.64423 0.691935,-1.125 1.375,-1.125 0.683065,10e-6 1.243058,0.48077 1.375,1.125 L 56,376 56,341 c -0.891806,-0.26165 -1.5625,-0.99941 -1.5625,-1.90625 0,-0.90684 0.670695,-1.67585 1.5625,-1.9375 L 56,328 8,328 z"
         transform="translate(0,-192.70711)"
         id="rect3946" />
      <path
         sodipodi:type="arc"
         style="fill:white;fill-opacity:1;fill-rule:nonzero;stroke:#7f7f7f;stroke-width:1.5400809;stroke-linecap:round;stroke-linejoin:round;stroke-miterlimit:4;stroke-opacity:1;stroke-dasharray:none;stroke-dashoffset:0"
         id="path3948"
         sodipodi:cx="32"
         sodipodi:cy="352"
         sodipodi:rx="8"
         sodipodi:ry="8"
         d="m 40,352 c 0,4.41828 -3.581722,8 -8,8 -4.418278,0 -8,-3.58172 -8,-8 0,-4.41828 3.581722,-8 8,-8 4.418278,0 8,3.58172 8,8 z"
         transform="matrix(0.875,0,0,0.875,4,-148.70711)" />
      <path
         style="fill:#898989;fill-opacity:1;fill-rule:nonzero;stroke:none"
         d="m 34.751725,175.29292 c 0,3.39988 -0.09413,6.1592 -2.751726,6.1592 -2.942259,0 -2.751725,-2.75932 -2.751725,-6.1592 0,-3.39989 0.189015,-6.15921 2.751725,-6.15921 2.94226,0 2.751726,2.75932 2.751726,6.15921 z"
         id="path3950"
         sodipodi:nodetypes="csssc" />
      <rect
         style="fill:white;fill-opacity:1;fill-rule:nonzero;stroke:none"
         id="rect3953"
         width="41.817062"
         height="11.094669"
         x="11.003081"
         y="137.46965" />
    </g>
    <g
       id="g22863"
       transform="translate(-0.72727273,0.72727273)">
      <path
         sodipodi:nodetypes="ccccc"
         id="rect21821"
         d="m 32.363637,32.39263 27.914438,-0.07973 -1.304813,28.10148 -28.534759,0 1.925134,-28.021745 z"
         style="color:black;fill:#e6e6e6;fill-opacity:1;fill-rule:evenodd;stroke:black;stroke-width:2;stroke-miterlimit:4;marker:none;visibility:visible;display:inline;overflow:visible;enable-background:accumulate" />
    </g>
    <g
       style="display:inline"
       id="use20932"
       transform="matrix(-0.4947064,0.7303158,-0.7303158,-0.4947064,267.0586,99.928705)" />
    <path
       sodipodi:type="arc"
       id="path4144"
       style="fill:#333;stroke:none"
       sodipodi:cx="36.727272"
       sodipodi:cy="38.181816"
       sodipodi:rx="1.5"
       sodipodi:ry="1.5"
       d="m 38.227272,38.181816 a 1.5,1.5 0 1 1 -3,0 1.5,1.5 0 1 1 3,0 z"
       inkscape:tile-cx="36.727272"
       inkscape:tile-cy="38.181816"
       inkscape:tile-w="3"
       inkscape:tile-h="3"
       inkscape:tile-x0="35.227272"
       inkscape:tile-y0="36.681816"
       transform="matrix(1.0943339,0,-0.03659215,1.1003135,-3.6643363,-5.1342261)" />
    <use
       x="0"
       y="0"
       inkscape:tiled-clone-of="#path4144"
       xlink:href="#path4144"
       id="use4788"
       width="64"
       height="64"
       style="fill:#b3b3b3" />
    <use
       x="0"
       y="0"
       inkscape:tiled-clone-of="#path4144"
       xlink:href="#path4144"
       transform="translate(-0.30137065,4.1261756)"
       id="use4790"
       width="64"
       height="64" />
    <use
       x="0"
       y="0"
       inkscape:tiled-clone-of="#path4144"
       xlink:href="#path4144"
       transform="translate(-0.60274126,8.2523511)"
       id="use4792"
       width="64"
       height="64" />
    <use
       x="0"
       y="0"
       inkscape:tiled-clone-of="#path4144"
       xlink:href="#path4144"
       transform="translate(-0.9041119,12.378527)"
       id="use4794"
       width="64"
       height="64" />
    <use
       x="0"
       y="0"
       inkscape:tiled-clone-of="#path4144"
       xlink:href="#path4144"
       transform="translate(-1.2054826,16.504703)"
       id="use4796"
       width="64"
       height="64" />
    <use
       x="0"
       y="0"
       inkscape:tiled-clone-of="#path4144"
       xlink:href="#path4144"
       transform="translate(-1.5068532,20.630877)"
       id="use4798"
       width="64"
       height="64" />
    <use
       x="0"
       y="0"
       inkscape:tiled-clone-of="#path4144"
       xlink:href="#path4144"
       transform="translate(4.1037522,0)"
       id="use4800"
       width="64"
       height="64" />
    <use
       x="0"
       y="0"
       inkscape:tiled-clone-of="#path4144"
       xlink:href="#path4144"
       transform="translate(3.8023815,4.1261756)"
       id="use4802"
       width="64"
       height="64" />
    <use
       x="0"
       y="0"
       inkscape:tiled-clone-of="#path4144"
       xlink:href="#path4144"
       transform="translate(3.5010109,8.2523511)"
       id="use4804"
       width="64"
       height="64" />
    <use
       x="0"
       y="0"
       inkscape:tiled-clone-of="#path4144"
       xlink:href="#path4144"
       transform="translate(3.1996402,12.378527)"
       id="use4806"
       width="64"
       height="64" />
    <use
       x="0"
       y="0"
       inkscape:tiled-clone-of="#path4144"
       xlink:href="#path4144"
       transform="translate(2.8982696,16.504703)"
       id="use4808"
       width="64"
       height="64" />
    <use
       x="0"
       y="0"
       inkscape:tiled-clone-of="#path4144"
       xlink:href="#path4144"
       transform="translate(2.596899,20.630877)"
       id="use4810"
       width="64"
       height="64" />
    <use
       x="0"
       y="0"
       inkscape:tiled-clone-of="#path4144"
       xlink:href="#path4144"
       transform="translate(8.2075044,0)"
       id="use4812"
       width="64"
       height="64" />
    <use
       x="0"
       y="0"
       inkscape:tiled-clone-of="#path4144"
       xlink:href="#path4144"
       transform="translate(7.9061337,4.1261756)"
       id="use4814"
       width="64"
       height="64" />
    <use
       x="0"
       y="0"
       inkscape:tiled-clone-of="#path4144"
       xlink:href="#path4144"
       transform="translate(7.6047632,8.2523511)"
       id="use4816"
       width="64"
       height="64" />
    <use
       x="0"
       y="0"
       inkscape:tiled-clone-of="#path4144"
       xlink:href="#path4144"
       transform="translate(7.3033925,12.378527)"
       id="use4818"
       width="64"
       height="64" />
    <use
       x="0"
       y="0"
       inkscape:tiled-clone-of="#path4144"
       xlink:href="#path4144"
       transform="translate(7.0020219,16.504703)"
       id="use4820"
       width="64"
       height="64" />
    <use
       x="0"
       y="0"
       inkscape:tiled-clone-of="#path4144"
       xlink:href="#path4144"
       transform="translate(6.7006513,20.630877)"
       id="use4822"
       width="64"
       height="64" />
    <use
       x="0"
       y="0"
       inkscape:tiled-clone-of="#path4144"
       xlink:href="#path4144"
       transform="translate(12.311256,0)"
       id="use4824"
       width="64"
       height="64" />
    <use
       x="0"
       y="0"
       inkscape:tiled-clone-of="#path4144"
       xlink:href="#path4144"
       transform="translate(12.009886,4.1261756)"
       id="use4826"
       width="64"
       height="64" />
    <use
       x="0"
       y="0"
       inkscape:tiled-clone-of="#path4144"
       xlink:href="#path4144"
       transform="translate(11.708515,8.2523511)"
       id="use4828"
       width="64"
       height="64" />
    <use
       x="0"
       y="0"
       inkscape:tiled-clone-of="#path4144"
       xlink:href="#path4144"
       transform="translate(11.407144,12.378527)"
       id="use4830"
       width="64"
       height="64" />
    <use
       x="0"
       y="0"
       inkscape:tiled-clone-of="#path4144"
       xlink:href="#path4144"
       transform="translate(11.105775,16.504703)"
       id="use4832"
       width="64"
       height="64" />
    <use
       x="0"
       y="0"
       inkscape:tiled-clone-of="#path4144"
       xlink:href="#path4144"
       transform="translate(10.804403,20.630877)"
       id="use4834"
       width="64"
       height="64" />
    <use
       x="0"
       y="0"
       inkscape:tiled-clone-of="#path4144"
       xlink:href="#path4144"
       transform="translate(16.415009,0)"
       id="use4836"
       width="64"
       height="64" />
    <use
       x="0"
       y="0"
       inkscape:tiled-clone-of="#path4144"
       xlink:href="#path4144"
       transform="translate(16.113638,4.1261756)"
       id="use4838"
       width="64"
       height="64" />
    <use
       x="0"
       y="0"
       inkscape:tiled-clone-of="#path4144"
       xlink:href="#path4144"
       transform="translate(15.812267,8.2523511)"
       id="use4840"
       width="64"
       height="64" />
    <use
       x="0"
       y="0"
       inkscape:tiled-clone-of="#path4144"
       xlink:href="#path4144"
       transform="translate(15.510897,12.378527)"
       id="use4842"
       width="64"
       height="64" />
    <use
       x="0"
       y="0"
       inkscape:tiled-clone-of="#path4144"
       xlink:href="#path4144"
       transform="translate(15.209527,16.504703)"
       id="use4844"
       width="64"
       height="64" />
    <use
       x="0"
       y="0"
       inkscape:tiled-clone-of="#path4144"
       xlink:href="#path4144"
       transform="translate(14.908156,20.630877)"
       id="use4846"
       width="64"
       height="64" />
    <use
       x="0"
       y="0"
       inkscape:tiled-clone-of="#path4144"
       xlink:href="#path4144"
       transform="translate(20.518761,0)"
       id="use4848"
       width="64"
       height="64" />
    <use
       x="0"
       y="0"
       inkscape:tiled-clone-of="#path4144"
       xlink:href="#path4144"
       transform="translate(20.21739,4.1261756)"
       id="use4850"
       width="64"
       height="64" />
    <use
       x="0"
       y="0"
       inkscape:tiled-clone-of="#path4144"
       xlink:href="#path4144"
       transform="translate(19.91602,8.2523511)"
       id="use4852"
       width="64"
       height="64" />
    <use
       x="0"
       y="0"
       inkscape:tiled-clone-of="#path4144"
       xlink:href="#path4144"
       transform="translate(19.614649,12.378527)"
       id="use4854"
       width="64"
       height="64" />
    <use
       x="0"
       y="0"
       inkscape:tiled-clone-of="#path4144"
       xlink:href="#path4144"
       transform="translate(19.313279,16.504703)"
       id="use4856"
       width="64"
       height="64" />
    <use
       x="0"
       y="0"
       inkscape:tiled-clone-of="#path4144"
       xlink:href="#path4144"
       transform="translate(19.011908,20.630877)"
       id="use4858"
       width="64"
       height="64" />
  </g>
</svg>
