<?xml version="1.0" encoding="UTF-8" standalone="no"?>
<!-- Created with Inkscape (http://www.inkscape.org/) -->

<svg
   xmlns:dc="http://purl.org/dc/elements/1.1/"
   xmlns:cc="http://creativecommons.org/ns#"
   xmlns:rdf="http://www.w3.org/1999/02/22-rdf-syntax-ns#"
   xmlns:svg="http://www.w3.org/2000/svg"
   xmlns="http://www.w3.org/2000/svg"
   xmlns:xlink="http://www.w3.org/1999/xlink"
   xmlns:sodipodi="http://sodipodi.sourceforge.net/DTD/sodipodi-0.dtd"
   xmlns:inkscape="http://www.inkscape.org/namespaces/inkscape"
   width="64px"
   height="64px"
   id="svg4736"
   sodipodi:version="0.32"
   inkscape:version="0.48.2 r9819"
   sodipodi:docname="v9t9.svg"
   inkscape:output_extension="org.inkscape.output.svg.inkscape"
   inkscape:export-filename="/home/ejs/devel/emul/v9t9/v9t9-java/v9t9-java/data/icons/v9t9.png"
   inkscape:export-xdpi="360"
   inkscape:export-ydpi="360"
   version="1.1">
  <defs
     id="defs4738">
    <inkscape:perspective
       sodipodi:type="inkscape:persp3d"
       inkscape:vp_x="0 : 32 : 1"
       inkscape:vp_y="0 : 1000 : 0"
       inkscape:vp_z="64 : 32 : 1"
       inkscape:persp3d-origin="32 : 21.333333 : 1"
       id="perspective4744" />
  </defs>
  <sodipodi:namedview
     id="base"
     pagecolor="#ffffff"
     bordercolor="#666666"
     borderopacity="1.0"
     inkscape:pageopacity="0.0"
     inkscape:pageshadow="2"
     inkscape:zoom="5.5"
     inkscape:cx="32"
     inkscape:cy="32"
     inkscape:current-layer="layer1"
     showgrid="true"
     inkscape:document-units="px"
     inkscape:grid-bbox="true"
     inkscape:window-width="774"
     inkscape:window-height="662"
     inkscape:window-x="430"
     inkscape:window-y="234"
     inkscape:window-maximized="0" />
  <metadata
     id="metadata4741">
    <rdf:RDF>
      <cc:Work
         rdf:about="">
        <dc:format>image/svg+xml</dc:format>
        <dc:type
           rdf:resource="http://purl.org/dc/dcmitype/StillImage" />
        <dc:title></dc:title>
      </cc:Work>
    </rdf:RDF>
  </metadata>
  <g
     id="layer1"
     inkscape:label="Layer 1"
     inkscape:groupmode="layer">
    <g
       id="g5334"
       transform="matrix(5.5315411,0,0,3.3443456,-146.2411,-33.278689)">
      <path
         sodipodi:type="inkscape:offset"
         inkscape:radius="1.052549"
         inkscape:original="M 32.28125 11.5 C 32.051638 11.500015 31.898732 11.580226 31.8125 11.78125 C 31.726263 11.982304 31.679209 12.252456 31.65625 12.5625 C 31.633287 12.872574 31.599357 13.212141 31.59375 13.5625 C 31.588139 13.912885 31.557489 14.221203 31.5 14.53125 C 31.442508 14.841321 31.336832 15.111473 31.1875 15.3125 C 31.038165 15.513551 30.810234 15.593761 30.5 15.59375 L 30.15625 15.59375 C 30.064406 15.593761 29.975132 15.63831 29.90625 15.71875 C 29.837367 15.799211 29.770457 15.955222 29.71875 16.15625 C 29.667044 16.3573 29.622496 16.618387 29.59375 16.96875 C 29.565005 17.319132 29.562499 17.792348 29.5625 18.34375 C 29.5625 18.400898 29.568284 18.41765 29.5625 18.40625 C 29.556716 18.394865 29.531251 18.439414 29.53125 18.53125 C 29.53125 18.554394 29.531251 18.579088 29.53125 18.625 C 29.53125 18.67093 29.550931 18.723768 29.5625 18.78125 C 29.826813 18.700632 30.068818 18.678447 30.28125 18.71875 C 30.493681 18.759071 30.658155 18.781258 30.75 18.78125 L 30.75 20.5625 C 30.749999 20.93023 30.710461 21.305885 30.6875 21.65625 C 30.664538 22.006628 30.653743 22.318049 30.625 22.59375 C 30.596254 22.86946 30.554211 23.0721 30.53125 23.25 C 30.508288 23.427906 30.5 23.539368 30.5 23.5625 L 30.5 24.25 C 30.499999 24.571454 30.580809 24.90291 30.71875 25.21875 C 30.856689 25.534595 31.037567 25.809756 31.25 26.0625 C 31.46243 26.315245 31.704611 26.532383 31.96875 26.6875 C 32.232885 26.842617 32.466003 26.90625 32.71875 26.90625 L 33.84375 26.90625 C 34.26896 26.90625 34.590999 26.864805 34.84375 26.75 C 35.096489 26.635196 35.319412 26.465113 35.46875 26.28125 C 35.618077 26.097388 35.723931 25.891643 35.78125 25.65625 C 35.838558 25.420858 35.852032 25.184462 35.875 24.9375 C 35.897955 24.690541 35.945783 24.460105 35.96875 24.21875 C 35.991704 23.977401 36.024687 23.74619 36.09375 23.5625 L 36.09375 23.15625 C 35.886921 23.190607 35.700258 23.223764 35.5625 23.28125 C 35.424729 23.338743 35.308082 23.417222 35.1875 23.46875 C 35.066907 23.520284 34.958724 23.553439 34.84375 23.59375 C 34.728765 23.634066 34.586828 23.656253 34.4375 23.65625 C 34.265377 23.656253 34.106688 23.58934 33.96875 23.46875 C 33.830806 23.348165 33.781247 23.167464 33.78125 22.9375 L 34.03125 21.15625 C 34.031245 20.869157 34.025462 20.579923 34.03125 20.28125 C 34.037029 19.982591 34.079073 19.698364 34.125 19.46875 C 34.170917 19.239149 34.240334 19.05559 34.34375 18.90625 C 34.447157 18.756925 34.606024 18.687508 34.8125 18.6875 L 36.09375 18.6875 C 36.0019 18.549393 35.951568 18.360402 35.96875 18.125 C 35.98592 17.889616 36.01657 17.636642 36.0625 17.34375 C 36.108415 17.050877 36.164533 16.747745 36.1875 16.4375 C 36.210454 16.127276 36.17402 15.829928 36.09375 15.53125 L 34.625 15.53125 C 34.636563 15.405064 34.630779 15.313285 34.625 15.25 C 34.619211 15.186738 34.624994 15.055595 34.625 14.90625 C 34.624995 14.423909 34.658151 13.967694 34.75 13.53125 C 34.841838 13.094832 34.874996 12.752759 34.875 12.5 L 34.875 11.5 L 32.28125 11.5 z "
         style="font-size:17.23011017px;font-style:normal;font-variant:normal;font-weight:normal;font-stretch:normal;text-indent:0;text-align:start;text-decoration:none;line-height:100%;letter-spacing:normal;word-spacing:normal;text-transform:none;direction:ltr;block-progression:tb;writing-mode:lr-tb;text-anchor:start;fill:black;fill-opacity:1;fill-rule:nonzero;stroke:none;stroke-width:1px;marker:none;visibility:visible;display:inline;overflow:visible;enable-background:accumulate;font-family:Lucas;-inkscape-font-specification:Lucas"
         id="path5340"
         d="m 32.28125,10.4375 c -0.237354,1.6e-5 -0.527411,0.05298 -0.8125,0.21875 -0.285089,0.165765 -0.513023,0.457709 -0.625,0.71875 -0.166207,0.387496 -0.222545,0.754238 -0.25,1.125 -0.0215,0.290361 -0.05598,0.623842 -0.0625,1.03125 -0.0048,0.298911 -0.01559,0.559502 -0.0625,0.8125 -0.01908,0.102897 -0.03749,0.127418 -0.0625,0.1875 l -0.25,0 c -0.432122,5.2e-5 -0.826257,0.224117 -1.0625,0.5 -0.287024,0.335268 -0.332701,0.589053 -0.40625,0.875 -0.07013,0.272697 -0.123742,0.572533 -0.15625,0.96875 -0.03392,0.4134 -0.03123,0.897634 -0.03125,1.4375 -0.0014,0.0099 0.0012,0.02147 0,0.03125 -8.85e-4,0.01176 2.13e-4,0.0249 0,0.03125 -0.0014,0.04231 -5.41e-4,0.0488 0,0.0625 -0.0016,0.0306 -0.03125,0.06225 -0.03125,0.09375 l 0,0.09375 c 0,0.346608 0.07187,0.421568 0.0625,0.375 a 1.0526543,1.0526543 0 0 0 1.15625,0.8125 l 0,0.75 c -1e-6,0.292286 -0.03759,0.651196 -0.0625,1.03125 -0.02422,0.369508 -0.03942,0.68482 -0.0625,0.90625 l 0.03125,0 c -0.02329,0.223335 -0.0629,0.385963 -0.09375,0.625 -0.013,0.100685 -0.02501,0.183072 -0.03125,0.25 -0.0062,0.06693 -0.03125,0.05023 -0.03125,0.1875 l 0,0.6875 c -2e-6,0.497856 0.126803,0.949814 0.3125,1.375 0.183271,0.419644 0.422311,0.809489 0.6875,1.125 0.274902,0.327073 0.608254,0.613695 1,0.84375 0.388936,0.228408 0.851839,0.375 1.28125,0.375 l 1.125,0 c 0.493604,0 0.965084,-0.03542 1.4375,-0.25 0.396953,-0.180312 0.727758,-0.446069 1,-0.78125 0.238118,-0.293188 0.43681,-0.643412 0.53125,-1.03125 0.08665,-0.355916 0.104252,-0.651911 0.125,-0.875 0.01607,-0.172884 0.06371,-0.403106 0.09375,-0.71875 0.01996,-0.209816 0.05698,-0.360314 0.0625,-0.375 a 1.0526543,1.0526543 0 0 0 0.0625,-0.375 l 0,-0.40625 a 1.0526543,1.0526543 0 0 0 -1.25,-1.03125 c -0.213831,0.03552 -0.433131,0.05527 -0.75,0.1875 -0.171381,0.07152 -0.193573,0.09225 -0.25,0.125 l 0.15625,-1.125 a 1.0526543,1.0526543 0 0 0 0.03125,-0.15625 c -5e-6,-0.301215 -0.0053,-0.571817 0,-0.84375 0.0037,-0.191773 0.02997,-0.387453 0.0625,-0.5625 l 0.9375,0 a 1.0526543,1.0526543 0 0 0 0.9375,-1.5625 c 0.01454,-0.199312 0.01984,-0.415445 0.0625,-0.6875 0.0428,-0.273017 0.12769,-0.614206 0.15625,-1 0.03265,-0.441321 -0.02,-0.859321 -0.125,-1.25 a 1.0526543,1.0526543 0 0 0 -1.03125,-0.78125 l -0.375,0 c 0.01532,-0.246637 0.01777,-0.50621 0.0625,-0.71875 0.104148,-0.494917 0.156245,-0.905204 0.15625,-1.25 l 0,-1 A 1.0526543,1.0526543 0 0 0 34.875,10.4375 l -2.59375,0 z m -3.15625,7 c 0,0 -6.03e-4,0.02991 0,0.03125 -0.0919,0.0454 -0.156388,0.0783 -0.1875,0.09375 0,0 0.1875,-0.125 0.1875,-0.125 z" />
      <path
         style="font-size:17.23011017px;font-style:normal;font-variant:normal;font-weight:normal;font-stretch:normal;text-indent:0;text-align:start;text-decoration:none;line-height:100%;letter-spacing:normal;word-spacing:normal;text-transform:none;direction:ltr;block-progression:tb;writing-mode:lr-tb;text-anchor:start;fill:#49c751;fill-opacity:1;fill-rule:nonzero;stroke:none;stroke-width:1px;marker:none;visibility:visible;display:inline;overflow:visible;enable-background:accumulate;font-family:Lucas;-inkscape-font-specification:Lucas"
         d="m 32.4375,11.28125 c -0.433187,-0.0024 -0.809917,0.296403 -0.90625,0.71875 -0.03749,0.143366 -0.0451,0.327484 -0.0625,0.5625 -0.02242,0.302696 -0.08786,0.632201 -0.09375,1 -0.0057,0.35877 -0.01127,0.661224 -0.0625,0.9375 -0.05717,0.308319 -0.159516,0.523625 -0.28125,0.6875 -0.05894,0.07935 -0.309855,0.187508 -0.53125,0.1875 l -0.0625,0 c -0.439823,-0.09522 -1.133001,-0.01391 -1.159906,0.539384 -0.07777,0.478005 -0.09236,0.27003 -0.189124,1.221738 -0.291173,1.018619 -0.149624,0.724189 -0.120126,1.550964 0.03067,0.01208 0.06197,0.02251 0.09375,0.03125 0.191907,0.09467 0.395689,0.08723 0.59375,0.09375 0.106591,-0.108729 0.02481,-6e-6 0.03125,0 0,0 0.279916,-0.06207 0.28125,-0.0625 0.005,-0.0016 0.0235,0.0026 0.03125,0 0.01551,-0.0053 0.03818,-0.02221 0.0625,-0.03125 0.165044,-0.0135 0.297628,-0.14963 0.4375,-0.28125 l 0.03166,2.125414 c -1e-6,0.359866 -0.03915,0.737471 -0.0625,1.09375 -0.02341,0.357253 -0.0031,0.635988 -0.03125,0.90625 -0.02873,0.275542 -0.06895,0.46409 -0.09375,0.65625 -0.0022,0.01689 -0.01299,0.02294 -0.03125,0.21875 -0.0058,0.06172 -0.03182,0.08975 -0.03125,0.125 2.76e-4,0.01692 -9.89e-4,0.03941 0,0.0625 3.81e-4,0.0089 -0.0014,0.01393 0,0.03125 l 0,0.59375 c -2e-6,0.35798 0.09606,0.710023 0.25,1.0625 0.162907,0.373017 0.369307,0.645148 0.5625,0.875 0.224817,0.267483 0.482285,0.511932 0.78125,0.6875 0.21894,0.128575 0.616296,0.25 0.84375,0.25 l 1.125,0 c 0.456019,0 0.745739,-0.04362 1.0625,-0.1875 0.337971,-0.153519 0.506918,-0.270445 0.71875,-0.53125 0.193795,-0.238613 0.300498,-0.541127 0.34375,-0.71875 0.04713,-0.193591 0.06589,-0.419176 0.09375,-0.71875 0.0194,-0.208765 0.06356,-0.395405 0.09375,-0.65625 0.03212,-0.313474 -0.09767,-0.621716 -0.344349,-0.817794 -0.24668,-0.196079 -0.576258,-0.252977 -0.874401,-0.150956 -0.138011,0.0474 -0.218713,0.0844 -0.15625,0.0625 -0.06977,0.02446 -0.175749,0.03125 -0.34375,0.03125 -0.140212,2e-6 -0.26995,-0.02923 -0.34375,-0.09375 -0.05597,-0.04893 -0.09375,-0.24403 -0.09375,-0.40625 1.76e-4,-0.01042 1.76e-4,-0.02083 0,-0.03125 l 0.21875,-1.625 c 0.01331,-0.04089 0.02375,-0.08266 0.03125,-0.125 -10e-7,-0.02726 1.36e-4,-0.05857 0,-0.09375 -10e-4,-0.259747 -0.0051,-0.487079 0,-0.75 0.006,-0.309445 0.02653,-0.63266 0.0625,-0.8125 0.03669,-0.183452 0.081,-0.314953 0.1875,-0.46875 0.02109,-0.03045 0.246546,-0.124998 0.3125,-0.125 l 0.4375,0 c 0.48484,-0.0088 0.880459,-0.390767 0.90625,-0.875 0.01737,-0.206518 0.05317,-0.397487 0.09375,-0.65625 0.04379,-0.279322 0.09938,-0.591432 0.125,-0.9375 0.01008,-0.136275 0.03131,-0.199243 0.03125,-0.1875 0.0036,-0.249723 -0.09403,-0.490271 -0.270629,-0.666871 -0.1766,-0.176599 -0.417148,-0.274218 -0.666871,-0.270629 l -0.65625,0 c -0.0014,-0.0277 0.0016,-0.07632 0,-0.09375 -0.01101,-0.120305 0.03124,-0.09652 0.03125,-0.3125 -5e-6,-0.492505 0.0096,-0.943944 0.09375,-1.34375 0.08926,-0.424177 0.156245,-0.737639 0.15625,-1.0625 l 0,-0.28125 c 0.0036,-0.249723 -0.09403,-0.490271 -0.270629,-0.666871 -0.1766,-0.176599 -0.417148,-0.274218 -0.666871,-0.270629 l -1.71875,0 z"
         id="path5342"
         sodipodi:nodetypes="ccssssccccccccsscccssssssccsssccsssscssssssccssssscccssssccsssccscc"
         inkscape:connector-curvature="0" />
    </g>
    <g
       id="g5330"
       transform="matrix(2.736756,0,0,2.8416382,-12.952519,-15.885499)">
      <path
         style="font-size:17.23011017px;font-style:normal;font-variant:normal;font-weight:normal;font-stretch:normal;text-indent:0;text-align:start;text-decoration:none;line-height:100%;letter-spacing:normal;word-spacing:normal;text-transform:none;direction:ltr;block-progression:tb;writing-mode:lr-tb;text-anchor:start;fill:black;fill-opacity:1;fill-rule:nonzero;stroke:none;stroke-width:1px;marker:none;visibility:visible;display:inline;overflow:visible;enable-background:accumulate;font-family:Lucas;-inkscape-font-specification:Lucas"
         d="m 13.375,14.71875 c -0.513605,1.6e-5 -0.972239,0.255986 -1.28125,0.625 -0.278525,0.332619 -0.495551,0.71981 -0.65625,1.125 -0.149757,0.377586 -0.276723,0.729958 -0.34375,1.125 -0.05808,0.342267 -0.09376,0.553004 -0.09375,0.78125 -7e-6,0.302323 0.02201,0.565918 0.0625,0.78125 0.04133,0.219897 0.104588,0.395616 0.15625,0.53125 0.05067,0.133097 0.119434,0.238453 0.15625,0.3125 -0.0043,-0.06542 -0.04074,0.09152 -0.1875,0.375 -0.145103,0.280273 -0.364622,0.599661 -0.59375,0.9375 -0.222286,0.327746 -0.45051,0.643522 -0.65625,0.875 -0.037078,0.04172 -9.22e-5,0.0054 -0.03125,0.03125 C 9.8826369,22.151698 9.8620011,22.07768 9.84375,22 9.8016137,21.820698 9.7583432,21.655555 9.75,21.53125 c -0.00675,-0.100525 -0.023679,-0.195384 -0.03125,-0.25 l 0,-0.8125 C 9.7187478,20.34052 9.7098148,20.21746 9.65625,20.0625 9.632476,19.993723 9.5283016,19.948421 9.46875,19.875 9.4822577,19.769828 9.4955773,19.662347 9.5,19.5 c 0.00643,-0.236355 -3.4e-6,-0.52538 0,-0.96875 -3e-6,-0.445501 0.00361,-1.137187 -0.03125,-2 C 9.4572169,16.313944 9.4511206,16.142245 9.4375,16 9.4189086,15.805994 9.3792135,15.673153 9.375,15.65625 9.3554982,15.578072 9.3705136,15.46437 9.15625,15.25 9.076445,15.170233 9.1101702,15.19892 9.125,15.21875 9.0225933,15.080002 8.8599427,14.998676 8.6875,15 L 5.625,15 c -0.2917425,0.004 -0.5272835,0.239508 -0.53125,0.53125 l 0,2.15625 c 0,0.236301 0.101568,0.474366 0.28125,0.65625 0.00196,0.03417 -0.00354,0.116928 0,0.09375 -0.020258,0.132784 -0.019659,0.273116 -0.03125,0.46875 -0.010686,0.180362 -0.037529,0.488404 -0.03125,0.875 0.00621,0.382403 0.039732,0.861061 0.0625,1.4375 0.035323,0.755856 0.1069124,1.48052 0.21875,2.1875 0.1128377,0.713316 0.2645216,1.352206 0.5,1.9375 0.2372887,0.589805 0.5575169,1.116171 0.96875,1.5 0.4410432,0.411658 1.0241286,0.59375 1.625,0.59375 l 0.875,0 c 0.500833,0 0.979005,-0.169822 1.46875,-0.46875 0.488136,-0.297954 0.959232,-0.703143 1.4375,-1.1875 0.473536,-0.479576 0.949046,-1.026899 1.40625,-1.65625 0.456662,-0.628621 0.856011,-1.279032 1.21875,-1.96875 0.361,-0.686435 0.685534,-1.398971 0.9375,-2.125 0.250889,-0.722968 0.425541,-1.412748 0.5,-2.09375 3.02e-4,-0.01041 3.02e-4,-0.02084 0,-0.03125 0.02594,-0.326941 0.01173,-0.605352 0,-0.8125 -0.0088,-0.155545 -10e-6,-0.406387 0,-0.71875 -1.4e-5,-0.18903 -0.02152,-0.35743 -0.03125,-0.46875 -0.01189,-0.135675 -0.01959,-0.277613 -0.09375,-0.46875 -0.09272,-0.238791 -0.244233,-0.369385 -0.3125,-0.4375 -0.08753,-0.08728 -0.334611,-0.281222 -0.625,-0.28125 l -2.09375,0 z"
         id="path5338"
         inkscape:connector-curvature="0" />
      <path
         d="m 13.375,15.96875 c -0.143556,4e-6 -0.176124,0.02464 -0.3125,0.1875 -0.177573,0.212061 -0.317127,0.47774 -0.4375,0.78125 -0.135182,0.340836 -0.236653,0.612159 -0.28125,0.875 -0.0567,0.334149 -0.09375,0.600494 -0.09375,0.5625 -5e-6,0.213003 0.036,0.421565 0.0625,0.5625 0.02534,0.134809 0.05556,0.212247 0.09375,0.3125 0.03391,0.08907 0.06292,0.157264 0.09375,0.21875 0.05584,0.111425 0.124955,0.158809 0.125,0.5 -2.1e-5,0.44638 -0.132752,0.652796 -0.3125,1 -0.195431,0.377483 -0.456844,0.722408 -0.6875,1.0625 -0.239921,0.353748 -0.487759,0.673704 -0.75,0.96875 -0.279726,0.314718 -0.48879,0.625018 -1.0625,0.625 -0.2156073,8e-6 -0.4562373,-0.08034 -0.625,-0.21875 C 9.0187373,23.267835 8.9115159,23.109323 8.84375,22.96875 8.7426105,22.75898 8.6512419,22.525945 8.59375,22.28125 8.5427079,22.064052 8.5159144,21.862109 8.5,21.625 c -0.00448,-0.06673 -0.02651,-0.122055 -0.03125,-0.15625 -0.00474,-0.0342 -3.39e-5,0.03338 0,-0.1875 l 0,-0.65625 C 8.4535043,20.612449 8.454554,20.609745 8.4375,20.59375 8.3207454,20.484249 8.2187244,20.241948 8.21875,20.0625 c 5.7e-6,0.07434 -0.058178,-0.0485 0,-0.3125 -0.021779,0.09886 0.026096,-0.09207 0.03125,-0.28125 0.0049,-0.180108 -3.4e-6,-0.483231 0,-0.9375 -3e-6,-0.451355 0.00241,-1.104598 -0.03125,-1.9375 C 8.2102125,16.432886 8.1940334,16.343095 8.1875,16.25 l -1.84375,0 0,1.25 c 0.076316,0.06067 0.1572232,0.252856 0.21875,0.46875 L 6.625,17.9375 c 0.013475,0.05432 -0.010291,0.13614 0,0.1875 0.00873,0.04358 0.031249,0.06419 0.03125,0.15625 -2.3e-6,0.175887 -0.0098,0.179495 -0.03125,0.21875 0.051448,-0.305632 0.034737,-0.07139 0,0.15625 5.788e-4,-0.0038 -0.019713,0.117778 -0.03125,0.3125 -0.01276,0.215383 -0.036366,0.497467 -0.03125,0.8125 0.00521,0.320729 0.038867,0.776656 0.0625,1.375 0.033043,0.707078 0.1135334,1.366125 0.21875,2.03125 0.103864,0.656588 0.2557762,1.235816 0.4375,1.6875 0.1792747,0.445605 0.4016543,0.79362 0.65625,1.03125 0.2143318,0.200051 0.4004957,0.28125 0.75,0.28125 l 0.875,0 c 0.1879672,0 0.4344545,-0.08175 0.8125,-0.3125 0.380192,-0.232066 0.766764,-0.542657 1.1875,-0.96875 0.427095,-0.432543 0.859258,-0.950369 1.28125,-1.53125 0.422687,-0.581851 0.791308,-1.178013 1.125,-1.8125 0.336,-0.638898 0.648372,-1.315731 0.875,-1.96875 0.224323,-0.646413 0.374113,-1.224626 0.4375,-1.78125 0.001,-0.0092 -0.001,-0.02204 0,-0.03125 0.01521,-0.221387 0.0104,-0.441369 0,-0.625 -0.01489,-0.262453 -9e-6,-0.501054 0,-0.78125 -5e-6,-0.06851 -0.01723,-0.183432 -0.03125,-0.34375 -0.0043,-0.04899 0.0032,-0.03901 0,-0.0625 l -1.875,0 z"
         id="path4801"
         style="font-size:17.23011017px;font-style:normal;font-variant:normal;font-weight:normal;font-stretch:normal;text-indent:0;text-align:start;text-decoration:none;line-height:100%;letter-spacing:normal;word-spacing:normal;text-transform:none;direction:ltr;block-progression:tb;writing-mode:lr-tb;text-anchor:start;fill:#4d51d0;fill-opacity:1;fill-rule:nonzero;stroke:none;stroke-width:1px;marker:none;visibility:visible;display:inline;overflow:visible;enable-background:accumulate;font-family:Lucas;-inkscape-font-specification:Lucas"
         inkscape:original="M 13.375 15.25 C 13.018837 15.250011 12.735561 15.406198 12.5 15.6875 C 12.264426 15.968826 12.081042 16.294321 11.9375 16.65625 C 11.793944 17.0182 11.682484 17.348705 11.625 17.6875 C 11.567504 18.026313 11.531244 18.260029 11.53125 18.375 C 11.531244 18.639321 11.559215 18.878821 11.59375 19.0625 C 11.628273 19.246195 11.672822 19.379419 11.71875 19.5 C 11.764665 19.620596 11.809215 19.712375 11.84375 19.78125 C 11.878272 19.850139 11.906244 19.922835 11.90625 19.96875 C 11.906244 20.095304 11.822754 20.303379 11.65625 20.625 C 11.489734 20.946632 11.261028 21.286202 11.03125 21.625 C 10.801461 21.963809 10.573529 22.272726 10.34375 22.53125 C 10.113962 22.789783 9.9386928 22.906254 9.8125 22.90625 C 9.6743805 22.906255 9.5802714 22.822764 9.5 22.65625 C 9.4197206 22.489745 9.358418 22.320435 9.3125 22.125 C 9.2665746 21.929575 9.2303145 21.734799 9.21875 21.5625 C 9.2071786 21.390211 9.1874965 21.304042 9.1875 21.28125 L 9.1875 20.46875 C 9.1874967 20.27315 9.1543399 20.15936 9.0625 20.125 C 8.9706533 20.090653 8.9374967 20.085643 8.9375 20.0625 C 8.9374965 20.016586 8.9261039 19.957963 8.9375 19.90625 C 8.9488896 19.854552 8.9629627 19.712439 8.96875 19.5 C 8.9745306 19.287576 8.9687466 18.979257 8.96875 18.53125 C 8.968747 18.083258 8.9718503 17.412587 8.9375 16.5625 C 8.9259285 16.34447 8.9178148 16.183275 8.90625 16.0625 C 8.8946785 15.941748 8.8609236 15.850144 8.84375 15.78125 C 8.8265699 15.712379 8.8099917 15.653756 8.78125 15.625 C 8.7525024 15.596266 8.7218505 15.577183 8.6875 15.53125 L 5.625 15.53125 L 5.625 17.6875 C 5.625 17.882764 5.6950153 17.99673 5.78125 18.03125 C 5.8674844 18.065786 5.9062497 18.102223 5.90625 18.125 C 5.9290352 18.216851 5.9374997 18.258122 5.9375 18.28125 C 5.9374997 18.304395 5.9120337 18.340654 5.90625 18.375 C 5.9004657 18.409362 5.9176426 18.456592 5.90625 18.53125 C 5.8948571 18.605925 5.8865678 18.742254 5.875 18.9375 C 5.8634316 19.132762 5.8379658 19.425101 5.84375 19.78125 C 5.8495337 20.137413 5.8831136 20.601741 5.90625 21.1875 C 5.9406032 21.922603 6.0159794 22.623328 6.125 23.3125 C 6.2340197 24.00168 6.3811422 24.627802 6.59375 25.15625 C 6.8063559 25.684703 7.0929103 26.115873 7.4375 26.4375 C 7.7820859 26.759127 8.193576 26.90625 8.6875 26.90625 L 9.5625 26.90625 C 9.9302204 26.90625 10.307779 26.769921 10.75 26.5 C 11.19221 26.230079 11.63996 25.865818 12.09375 25.40625 C 12.547527 24.946685 12.995277 24.421229 13.4375 23.8125 C 13.879707 23.203778 14.274619 22.572469 14.625 21.90625 C 14.975363 21.24004 15.290064 20.538716 15.53125 19.84375 C 15.772417 19.148798 15.930932 18.506695 16 17.875 C 16.022775 17.587912 16.011382 17.326049 16 17.125 C 15.988597 16.92397 15.99999 16.673677 16 16.375 C 15.99999 16.237247 15.980307 16.100917 15.96875 15.96875 C 15.957171 15.836604 15.946378 15.728423 15.90625 15.625 C 15.866102 15.5216 15.787798 15.443894 15.71875 15.375 C 15.649682 15.306129 15.58337 15.250011 15.46875 15.25 L 13.375 15.25 z "
         inkscape:radius="-0.72727275"
         sodipodi:type="inkscape:offset" />
    </g>
    <g
       id="g5320"
       transform="matrix(0.84265759,0,0,0.8749512,11.261569,15.939393)">
      <path
         sodipodi:type="inkscape:offset"
         inkscape:radius="1.4902962"
         inkscape:original="M 25.6875 11.375 C 23.718829 11.375033 21.916472 11.581455 20.40625 12.09375 C 18.896003 12.606109 17.650545 13.333676 16.53125 14.15625 C 15.411943 14.978882 14.41136 15.899292 13.65625 16.9375 C 12.901128 17.975759 12.364665 19.041962 11.90625 20.09375 C 11.447827 21.145586 11.07705 22.154275 10.875 23.125 C 10.672948 24.095771 10.59375 24.892557 10.59375 25.59375 C 10.593747 27.805211 10.888932 29.690857 11.46875 31.1875 C 12.048561 32.684166 12.779732 33.88618 13.65625 34.84375 C 14.532755 35.801338 15.466261 36.563759 16.53125 37.0625 C 17.596227 37.561253 18.653831 37.913466 19.625 38.15625 C 20.596147 38.399047 21.419202 38.526268 22.1875 38.59375 C 22.95577 38.661241 23.511286 38.731848 23.78125 38.8125 L 13.96875 51.59375 L 13.96875 51.8125 L 23.5625 51.8125 C 23.885929 51.81249 24.427379 51.309915 25.25 50.40625 C 26.072589 49.502576 27.024247 48.379344 28.0625 47.03125 C 29.100717 45.683146 30.188672 44.238474 31.28125 42.6875 C 32.373784 41.13653 33.329046 39.695949 34.21875 38.375 C 35.027749 37.215376 35.758921 36.021956 36.40625 34.78125 C 37.053523 33.540563 37.635304 32.320879 38.09375 31.09375 C 38.552139 29.866647 38.882182 28.646067 39.125 27.5 C 39.367759 26.353967 39.499972 25.314928 39.5 24.34375 C 39.499968 22.510088 39.2623 20.955866 38.75 19.59375 C 38.237642 18.231684 37.590249 17.033275 36.78125 16.0625 C 35.972198 15.09178 35.025044 14.325757 34 13.71875 C 32.974912 13.111808 31.930884 12.600227 30.90625 12.25 C 29.881574 11.89984 28.899152 11.652676 27.96875 11.53125 C 27.038314 11.409887 26.308033 11.375033 25.6875 11.375 z M 25.1875 19.15625 C 25.942189 19.156274 26.700518 19.270331 27.375 19.59375 C 28.049444 19.91722 28.577313 20.29119 29.0625 20.75 C 29.547649 21.208856 29.966863 21.706445 30.25 22.21875 C 30.533096 22.731098 30.687477 23.211912 30.6875 23.5625 L 30.6875 26.03125 C 30.687476 26.409032 30.519517 26.871281 30.25 27.4375 C 29.980442 28.00375 29.566215 28.866721 29 30 C 28.352265 29.433778 27.95702 29.103739 27.6875 28.96875 C 27.417946 28.833791 27.174388 28.750017 27.09375 28.75 C 26.878103 28.750018 26.693851 28.869059 26.4375 29.125 C 26.181112 29.380972 25.81934 29.676156 25.46875 30 C 25.118129 30.323869 24.704311 30.619054 24.21875 30.875 C 23.733155 31.130968 23.205285 31.250013 22.53125 31.25 C 22.207789 31.250013 21.79308 31.130968 21.375 30.875 C 20.956896 30.619054 20.551674 30.315279 20.1875 29.9375 C 19.823303 29.559751 19.554866 29.159511 19.3125 28.6875 C 19.070111 28.215517 18.937493 27.712525 18.9375 27.28125 L 18.9375 25.59375 C 18.937491 24.596274 19.215491 23.702131 19.6875 22.90625 C 20.159488 22.110416 20.700938 21.472508 21.375 20.90625 C 22.049038 20.340039 22.785197 19.890476 23.5 19.59375 C 24.214774 19.297077 24.729066 19.156276 25.1875 19.15625 z "
         style="font-size:17.23011017px;font-style:normal;font-variant:normal;font-weight:normal;font-stretch:normal;text-indent:0;text-align:start;text-decoration:none;line-height:100%;letter-spacing:normal;word-spacing:normal;text-transform:none;direction:ltr;block-progression:tb;writing-mode:lr-tb;text-anchor:start;fill:black;fill-opacity:1;fill-rule:nonzero;stroke:none;stroke-width:1px;marker:none;visibility:visible;display:inline;overflow:visible;enable-background:accumulate;font-family:Lucas;-inkscape-font-specification:Lucas"
         id="path5349"
         d="m 25.6875,9.875 c -2.072831,3.47e-5 -4.013516,0.223453 -5.75,0.8125 -1.680667,0.570175 -3.07477,1.394603 -4.28125,2.28125 -1.205236,0.885785 -2.34173,1.887927 -3.21875,3.09375 -0.843097,1.159221 -1.425074,2.333488 -1.90625,3.4375 -0.480256,1.10193 -0.8908006,2.187317 -1.125,3.3125 -0.2193705,1.053979 -0.3125,1.96784 -0.3125,2.78125 -3.2e-6,2.344078 0.3294071,4.394046 1,6.125 0.635172,1.63957 1.45154,3.013728 2.46875,4.125 0.966326,1.055718 2.053395,1.958219 3.34375,2.5625 1.16412,0.545184 2.290547,0.924208 3.34375,1.1875 0.672515,0.168136 1.234534,0.229736 1.8125,0.3125 L 12.78125,50.6875 a 1.4904453,1.4904453 0 0 0 -0.3125,0.90625 l 0,0.21875 a 1.4904453,1.4904453 0 0 0 1.5,1.5 l 9.59375,0 c 0.933611,-2.9e-5 1.25338,-0.400502 1.625,-0.71875 0.37162,-0.318248 0.727952,-0.717006 1.15625,-1.1875 0.851239,-0.935148 1.843557,-2.088922 2.90625,-3.46875 1.04517,-1.357132 2.140099,-2.830684 3.25,-4.40625 1.107207,-1.5718 2.083387,-2.997996 2.96875,-4.3125 l -0.03125,0 c 0.842435,-1.207552 1.602326,-2.448738 2.28125,-3.75 C 38.381901,34.197628 39.010196,32.936065 39.5,31.625 39.989694,30.314093 40.338647,29.016549 40.59375,27.8125 40.851619,26.595134 40.999968,25.450153 41,24.34375 40.999966,22.381327 40.746582,20.63209 40.15625,19.0625 39.599662,17.58285 38.882338,16.227527 37.9375,15.09375 37.009077,13.979806 35.901711,13.119517 34.75,12.4375 33.659101,11.791592 32.526747,11.237425 31.375,10.84375 30.277568,10.468727 29.210494,10.200089 28.15625,10.0625 27.162928,9.9329344 26.363775,9.875036 25.6875,9.875 z m -0.5,10.78125 c 0.604567,1.9e-5 1.126281,0.08706 1.53125,0.28125 0.543999,0.260907 0.925654,0.540435 1.3125,0.90625 0.405757,0.383767 0.726741,0.768949 0.90625,1.09375 0.203135,0.367635 0.250006,0.711823 0.25,0.625 l 0,2.46875 c 4e-6,-0.06386 -0.04375,0.282288 -0.28125,0.78125 -0.09533,0.200267 -0.305696,0.63305 -0.4375,0.90625 -0.04422,-0.0242 -0.07794,-0.07018 -0.125,-0.09375 -0.18507,-0.09266 -0.36076,-0.157151 -0.53125,-0.21875 -0.17049,-0.0616 -0.162663,-0.156133 -0.71875,-0.15625 -0.764023,6.4e-5 -1.373233,0.467536 -1.71875,0.8125 -0.165743,0.165474 -0.511865,0.479452 -0.90625,0.84375 -0.252837,0.233546 -0.561089,0.457838 -0.9375,0.65625 -0.260095,0.137102 -0.501453,0.18751 -1,0.1875 0.04224,-2e-6 -0.155722,-0.022 -0.375,-0.15625 C 21.820283,29.388085 21.507848,29.173731 21.25,28.90625 20.996916,28.643748 20.81949,28.378772 20.625,28 20.478259,27.714264 20.437498,27.406993 20.4375,27.28125 l 0,-1.6875 c -7e-6,-0.720567 0.178089,-1.342016 0.53125,-1.9375 0.395138,-0.666254 0.822053,-1.129237 1.375,-1.59375 0.562322,-0.472366 1.1616,-0.862468 1.71875,-1.09375 0.635201,-0.263646 0.971651,-0.312491 1.125,-0.3125 z" />
      <path
         d="m 23.0625,13.5 c -0.811011,1.4e-5 -1.535473,0.08127 -2.125,0.28125 -0.603051,0.204588 -1.109301,0.479442 -1.5625,0.8125 -0.453669,0.333423 -0.862965,0.72176 -1.15625,1.125 -0.301041,0.413919 -0.498747,0.848175 -0.6875,1.28125 -0.190348,0.436748 -0.359393,0.812246 -0.4375,1.1875 -0.08213,0.394612 -0.09375,0.733239 -0.09375,1 -1e-6,0.908672 0.11851,1.668604 0.34375,2.25 0.232873,0.601114 0.536084,1.067244 0.875,1.4375 0.350971,0.383438 0.693705,0.656406 1.09375,0.84375 0.431327,0.202002 0.858815,0.370957 1.25,0.46875 0.395886,0.09897 0.722004,0.129088 1.03125,0.15625 0.333958,0.02934 0.555233,0.06681 0.75,0.125 a 0.36701391,0.36701391 0 0 1 0.1875,0.5625 l -3.8125,4.9375 3.4375,0 c -0.116569,3e-6 -0.06388,0.01792 0.03125,-0.0625 0.09513,-0.08042 0.235798,-0.219005 0.40625,-0.40625 0.340874,-0.374476 0.749596,-0.837663 1.1875,-1.40625 0.441957,-0.573872 0.88387,-1.190926 1.34375,-1.84375 0.460867,-0.654252 0.869004,-1.278083 1.25,-1.84375 0.33737,-0.483589 0.670486,-0.956977 0.9375,-1.46875 0.272495,-0.522316 0.500391,-1.030412 0.6875,-1.53125 0.187253,-0.501274 0.336916,-0.99401 0.4375,-1.46875 0.09934,-0.468993 0.124989,-0.89884 0.125,-1.28125 C 28.562487,17.90477 28.47894,17.275623 28.28125,16.75 28.074789,16.201137 27.813047,15.750647 27.5,15.375 27.185117,14.997196 26.811648,14.677567 26.40625,14.4375 25.984943,14.18805 25.560801,13.982028 25.15625,13.84375 24.734514,13.699631 24.330619,13.609727 23.96875,13.5625 23.590145,13.513116 23.316828,13.500013 23.0625,13.5 z m -0.21875,2.5625 c 0.359291,1.1e-5 0.739094,0.04869 1.09375,0.21875 0.324083,0.155434 0.585045,0.347411 0.8125,0.5625 0.228411,0.216032 0.418657,0.458484 0.5625,0.71875 0.137529,0.248902 0.249983,0.49107 0.25,0.75 l 0,1.0625 c -1.7e-5,0.271419 -0.09736,0.494986 -0.21875,0.75 -0.114527,0.240583 -0.288355,0.607595 -0.53125,1.09375 a 0.36701391,0.36701391 0 0 1 -0.59375,0.125 C 23.94716,21.106337 23.784393,20.954726 23.75,20.9375 l 0,0.03125 c -0.03725,-0.01865 -0.06671,-0.05164 -0.09375,-0.0625 -0.111896,-2.3e-5 -0.0592,-0.01036 -0.03125,0 6.47e-4,0.0019 0.04155,-0.01023 0,0.03125 -0.12464,0.124438 -0.262385,0.273361 -0.40625,0.40625 -0.171221,0.158158 -0.388913,0.281805 -0.625,0.40625 -0.265199,0.139794 -0.547655,0.218757 -0.875,0.21875 -0.221657,10e-6 -0.453589,-0.07554 -0.6875,-0.21875 -0.207247,-0.126868 -0.388033,-0.287766 -0.5625,-0.46875 -0.180605,-0.187326 -0.3212,-0.398504 -0.4375,-0.625 -0.127144,-0.247576 -0.218754,-0.495698 -0.21875,-0.75 l 0,-0.71875 c -5e-6,-0.489042 0.140931,-0.949074 0.375,-1.34375 0.221266,-0.373084 0.467423,-0.673864 0.78125,-0.9375 0.313646,-0.263472 0.65483,-0.481715 1,-0.625 0.323305,-0.13419 0.603166,-0.218735 0.875,-0.21875 z"
         id="path5314"
         style="font-size:17.23011017px;font-style:normal;font-variant:normal;font-weight:normal;font-stretch:normal;text-indent:0;text-align:start;text-decoration:none;line-height:100%;letter-spacing:normal;word-spacing:normal;text-transform:none;direction:ltr;block-progression:tb;writing-mode:lr-tb;text-anchor:start;fill:#cfd050;fill-opacity:1;fill-rule:nonzero;stroke:none;stroke-width:1px;marker:none;visibility:visible;display:inline;overflow:visible;enable-background:accumulate;font-family:Lucas;-inkscape-font-specification:Lucas"
         inkscape:original="M 23.0625 13.125 C 22.223984 13.125014 21.455749 13.219298 20.8125 13.4375 C 20.169241 13.655729 19.632991 13.962141 19.15625 14.3125 C 18.679503 14.662884 18.259124 15.057796 17.9375 15.5 C 17.615871 15.942226 17.382753 16.395762 17.1875 16.84375 C 16.992244 17.291759 16.836059 17.711539 16.75 18.125 C 16.66394 18.53848 16.625 18.888841 16.625 19.1875 C 16.624999 20.129428 16.753038 20.925035 17 21.5625 C 17.246959 22.199975 17.564165 22.717142 17.9375 23.125 C 18.31083 23.532865 18.702639 23.850071 19.15625 24.0625 C 19.609855 24.274935 20.0551 24.427841 20.46875 24.53125 C 20.882391 24.634664 21.235259 24.690007 21.5625 24.71875 C 21.88973 24.747497 22.135014 24.778148 22.25 24.8125 L 18.0625 30.25 L 18.0625 30.34375 L 22.15625 30.34375 C 22.294008 30.343747 22.524621 30.134898 22.875 29.75 C 23.225365 29.365097 23.620277 28.886694 24.0625 28.3125 C 24.504708 27.738302 24.972138 27.129356 25.4375 26.46875 C 25.902842 25.808145 26.308548 25.187632 26.6875 24.625 C 27.032077 24.131081 27.349283 23.622204 27.625 23.09375 C 27.900693 22.565304 28.148484 22.053921 28.34375 21.53125 C 28.538992 21.008589 28.677826 20.488145 28.78125 20 C 28.884649 19.51187 28.937488 19.069904 28.9375 18.65625 C 28.937487 17.875239 28.843204 17.205166 28.625 16.625 C 28.406772 16.044855 28.125827 15.538482 27.78125 15.125 C 27.43665 14.711541 27.030347 14.383542 26.59375 14.125 C 26.157133 13.866485 25.717672 13.649172 25.28125 13.5 C 24.84481 13.350856 24.427536 13.239219 24.03125 13.1875 C 23.634949 13.135808 23.326804 13.125014 23.0625 13.125 z M 22.84375 16.4375 C 23.165195 16.43751 23.493968 16.487246 23.78125 16.625 C 24.068516 16.762776 24.293344 16.929579 24.5 17.125 C 24.706639 17.32044 24.879403 17.531794 25 17.75 C 25.120579 17.968225 25.18749 18.163174 25.1875 18.3125 L 25.1875 19.375 C 25.18749 19.535909 25.114795 19.72758 25 19.96875 C 24.885187 20.209933 24.709918 20.579802 24.46875 21.0625 C 24.192861 20.821329 24.021046 20.682496 23.90625 20.625 C 23.791438 20.567517 23.690596 20.531257 23.65625 20.53125 C 23.564399 20.531257 23.484188 20.578487 23.375 20.6875 C 23.265797 20.796526 23.118077 20.924565 22.96875 21.0625 C 22.81941 21.200446 22.644315 21.328485 22.4375 21.4375 C 22.230671 21.546525 22.005842 21.593756 21.71875 21.59375 C 21.580979 21.593756 21.396823 21.546525 21.21875 21.4375 C 21.040667 21.328485 20.873863 21.192157 20.71875 21.03125 C 20.563628 20.870355 20.446981 20.701044 20.34375 20.5 C 20.240509 20.298968 20.187497 20.089943 20.1875 19.90625 L 20.1875 19.1875 C 20.187496 18.762645 20.298957 18.370239 20.5 18.03125 C 20.701034 17.69228 20.931647 17.428686 21.21875 17.1875 C 21.505843 16.946333 21.820544 16.751384 22.125 16.625 C 22.429444 16.498638 22.648489 16.437511 22.84375 16.4375 z "
         inkscape:radius="-0.36697721"
         sodipodi:type="inkscape:offset"
         transform="matrix(2.3478032,0,0,2.3478032,-28.445709,-19.442858)" />
    </g>
    <use
       x="0"
       y="0"
       xlink:href="#g5320"
       id="use5347"
       transform="translate(16.853153,-0.1590821)"
       width="64"
       height="64" />
  </g>
</svg>
